<mxfile host="app.diagrams.net" agent="Mozilla/5.0 (Macintosh; Intel Mac OS X 10_15_7) AppleWebKit/537.36 (KHTML, like Gecko) Chrome/132.0.0.0 Safari/537.36" version="26.0.9" pages="3">
  <diagram name="Page-1" id="qRDFToGieXWFHNiyiY_J">
    <mxGraphModel dx="3828" dy="2323" grid="1" gridSize="10" guides="1" tooltips="1" connect="1" arrows="1" fold="1" page="1" pageScale="1" pageWidth="850" pageHeight="1100" math="0" shadow="0">
      <root>
        <mxCell id="0" />
        <mxCell id="1" parent="0" />
        <mxCell id="PQ4RPiRYlV6zUMraTzQ3-141" value="" style="edgeStyle=orthogonalEdgeStyle;rounded=0;orthogonalLoop=1;jettySize=auto;html=1;" parent="1" edge="1">
          <mxGeometry relative="1" as="geometry">
            <mxPoint x="102" y="600" as="targetPoint" />
          </mxGeometry>
        </mxCell>
        <mxCell id="PQ4RPiRYlV6zUMraTzQ3-142" style="edgeStyle=orthogonalEdgeStyle;rounded=0;orthogonalLoop=1;jettySize=auto;html=1;entryX=0.5;entryY=0;entryDx=0;entryDy=0;" parent="1" edge="1">
          <mxGeometry relative="1" as="geometry">
            <mxPoint x="260" y="740" as="targetPoint" />
          </mxGeometry>
        </mxCell>
        <mxCell id="PQ4RPiRYlV6zUMraTzQ3-54" style="edgeStyle=orthogonalEdgeStyle;rounded=0;orthogonalLoop=1;jettySize=auto;html=1;entryX=0;entryY=0.5;entryDx=0;entryDy=0;" parent="1" edge="1">
          <mxGeometry relative="1" as="geometry">
            <mxPoint x="340" y="770" as="targetPoint" />
          </mxGeometry>
        </mxCell>
        <mxCell id="PQ4RPiRYlV6zUMraTzQ3-60" style="edgeStyle=orthogonalEdgeStyle;rounded=0;orthogonalLoop=1;jettySize=auto;html=1;entryX=0;entryY=0.5;entryDx=0;entryDy=0;" parent="1" edge="1">
          <mxGeometry relative="1" as="geometry">
            <mxPoint x="500" y="770" as="targetPoint" />
          </mxGeometry>
        </mxCell>
        <mxCell id="PQ4RPiRYlV6zUMraTzQ3-73" style="edgeStyle=orthogonalEdgeStyle;rounded=0;orthogonalLoop=1;jettySize=auto;html=1;entryX=0;entryY=0.5;entryDx=0;entryDy=0;" parent="1" edge="1">
          <mxGeometry relative="1" as="geometry">
            <mxPoint x="640" y="770" as="targetPoint" />
          </mxGeometry>
        </mxCell>
        <mxCell id="PQ4RPiRYlV6zUMraTzQ3-62" value="Other models" style="rounded=0;whiteSpace=wrap;html=1;fillColor=#f8cecc;strokeColor=#b85450;" parent="1" vertex="1">
          <mxGeometry x="780" y="230" width="120" height="60" as="geometry" />
        </mxCell>
        <mxCell id="PQ4RPiRYlV6zUMraTzQ3-81" value="Generate asset inventory" style="rounded=0;whiteSpace=wrap;html=1;" parent="1" vertex="1">
          <mxGeometry x="1332" y="770" width="120" height="60" as="geometry" />
        </mxCell>
        <mxCell id="PQ4RPiRYlV6zUMraTzQ3-83" value="Modeling Subsystem" style="rounded=0;whiteSpace=wrap;html=1;" parent="1" vertex="1">
          <mxGeometry x="1420" y="610" width="120" height="60" as="geometry" />
        </mxCell>
        <mxCell id="PQ4RPiRYlV6zUMraTzQ3-107" style="edgeStyle=orthogonalEdgeStyle;rounded=0;orthogonalLoop=1;jettySize=auto;html=1;entryX=0.5;entryY=1;entryDx=0;entryDy=0;" parent="1" edge="1">
          <mxGeometry relative="1" as="geometry">
            <mxPoint x="100" y="730" as="sourcePoint" />
          </mxGeometry>
        </mxCell>
        <mxCell id="PQ4RPiRYlV6zUMraTzQ3-108" style="edgeStyle=orthogonalEdgeStyle;rounded=0;orthogonalLoop=1;jettySize=auto;html=1;" parent="1" edge="1">
          <mxGeometry relative="1" as="geometry">
            <mxPoint x="200" y="770" as="targetPoint" />
          </mxGeometry>
        </mxCell>
        <mxCell id="PQ4RPiRYlV6zUMraTzQ3-112" value="Generate study components" style="rounded=0;whiteSpace=wrap;html=1;" parent="1" vertex="1">
          <mxGeometry x="770" y="770" width="120" height="60" as="geometry" />
        </mxCell>
        <mxCell id="PQ4RPiRYlV6zUMraTzQ3-114" value="Generate alternative inputs" style="rounded=0;whiteSpace=wrap;html=1;" parent="1" vertex="1">
          <mxGeometry x="914.5" y="770" width="120" height="60" as="geometry" />
        </mxCell>
        <mxCell id="PQ4RPiRYlV6zUMraTzQ3-115" value="Generate simulation parameters" style="rounded=0;whiteSpace=wrap;html=1;" parent="1" vertex="1">
          <mxGeometry x="1054.5" y="770" width="120" height="60" as="geometry" />
        </mxCell>
        <mxCell id="PQ4RPiRYlV6zUMraTzQ3-116" value="Summarize simulation inputs" style="rounded=0;whiteSpace=wrap;html=1;" parent="1" vertex="1">
          <mxGeometry x="1194.5" y="770" width="120" height="60" as="geometry" />
        </mxCell>
        <mxCell id="PQ4RPiRYlV6zUMraTzQ3-120" value="" style="edgeStyle=orthogonalEdgeStyle;rounded=0;orthogonalLoop=1;jettySize=auto;html=1;" parent="1" source="PQ4RPiRYlV6zUMraTzQ3-117" target="PQ4RPiRYlV6zUMraTzQ3-62" edge="1">
          <mxGeometry relative="1" as="geometry" />
        </mxCell>
        <mxCell id="98Wi79xMPndo4PKG9-Y--6" style="edgeStyle=orthogonalEdgeStyle;rounded=0;orthogonalLoop=1;jettySize=auto;html=1;entryX=1;entryY=0.5;entryDx=0;entryDy=0;" parent="1" source="PQ4RPiRYlV6zUMraTzQ3-117" target="98Wi79xMPndo4PKG9-Y--5" edge="1">
          <mxGeometry relative="1" as="geometry" />
        </mxCell>
        <mxCell id="98Wi79xMPndo4PKG9-Y--8" style="edgeStyle=orthogonalEdgeStyle;rounded=0;orthogonalLoop=1;jettySize=auto;html=1;entryX=1;entryY=0.5;entryDx=0;entryDy=0;" parent="1" source="PQ4RPiRYlV6zUMraTzQ3-117" target="98Wi79xMPndo4PKG9-Y--7" edge="1">
          <mxGeometry relative="1" as="geometry" />
        </mxCell>
        <mxCell id="PQ4RPiRYlV6zUMraTzQ3-117" value="select model" style="rhombus;whiteSpace=wrap;html=1;" parent="1" vertex="1">
          <mxGeometry x="990" y="220" width="80" height="80" as="geometry" />
        </mxCell>
        <mxCell id="PQ4RPiRYlV6zUMraTzQ3-122" value="Inundation model" style="text;html=1;align=center;verticalAlign=middle;whiteSpace=wrap;rounded=0;" parent="1" vertex="1">
          <mxGeometry x="1140" y="210" width="60" height="30" as="geometry" />
        </mxCell>
        <mxCell id="PQ4RPiRYlV6zUMraTzQ3-123" value="other models" style="text;html=1;align=center;verticalAlign=middle;whiteSpace=wrap;rounded=0;" parent="1" vertex="1">
          <mxGeometry x="922" y="220" width="60" height="30" as="geometry" />
        </mxCell>
        <mxCell id="PQ4RPiRYlV6zUMraTzQ3-140" value="" style="group" parent="1" vertex="1" connectable="0">
          <mxGeometry x="380" y="1370" width="500" height="1010" as="geometry" />
        </mxCell>
        <mxCell id="PQ4RPiRYlV6zUMraTzQ3-130" value="&lt;div style=&quot;&quot;&gt;Generate response system&lt;/div&gt;" style="rounded=0;whiteSpace=wrap;html=1;align=center;verticalAlign=top;" parent="PQ4RPiRYlV6zUMraTzQ3-140" vertex="1">
          <mxGeometry width="500" height="790" as="geometry" />
        </mxCell>
        <mxCell id="PQ4RPiRYlV6zUMraTzQ3-138" value="" style="edgeStyle=orthogonalEdgeStyle;rounded=0;orthogonalLoop=1;jettySize=auto;html=1;" parent="PQ4RPiRYlV6zUMraTzQ3-140" source="PQ4RPiRYlV6zUMraTzQ3-48" target="PQ4RPiRYlV6zUMraTzQ3-52" edge="1">
          <mxGeometry relative="1" as="geometry" />
        </mxCell>
        <mxCell id="PQ4RPiRYlV6zUMraTzQ3-48" value="Model Area" style="shape=manualInput;whiteSpace=wrap;html=1;" parent="PQ4RPiRYlV6zUMraTzQ3-140" vertex="1">
          <mxGeometry x="210" y="230" width="80" height="100" as="geometry" />
        </mxCell>
        <mxCell id="PQ4RPiRYlV6zUMraTzQ3-139" value="" style="edgeStyle=orthogonalEdgeStyle;rounded=0;orthogonalLoop=1;jettySize=auto;html=1;" parent="PQ4RPiRYlV6zUMraTzQ3-140" source="PQ4RPiRYlV6zUMraTzQ3-52" target="PQ4RPiRYlV6zUMraTzQ3-136" edge="1">
          <mxGeometry relative="1" as="geometry" />
        </mxCell>
        <mxCell id="PQ4RPiRYlV6zUMraTzQ3-52" value="Protective System Elements" style="shape=manualInput;whiteSpace=wrap;html=1;" parent="PQ4RPiRYlV6zUMraTzQ3-140" vertex="1">
          <mxGeometry x="210" y="400" width="80" height="100" as="geometry" />
        </mxCell>
        <mxCell id="PQ4RPiRYlV6zUMraTzQ3-137" value="" style="edgeStyle=orthogonalEdgeStyle;rounded=0;orthogonalLoop=1;jettySize=auto;html=1;" parent="PQ4RPiRYlV6zUMraTzQ3-140" source="PQ4RPiRYlV6zUMraTzQ3-135" target="PQ4RPiRYlV6zUMraTzQ3-48" edge="1">
          <mxGeometry relative="1" as="geometry" />
        </mxCell>
        <mxCell id="PQ4RPiRYlV6zUMraTzQ3-135" value="start" style="ellipse;whiteSpace=wrap;html=1;" parent="PQ4RPiRYlV6zUMraTzQ3-140" vertex="1">
          <mxGeometry x="190" y="90" width="120" height="80" as="geometry" />
        </mxCell>
        <mxCell id="PQ4RPiRYlV6zUMraTzQ3-136" value="end" style="ellipse;whiteSpace=wrap;html=1;" parent="PQ4RPiRYlV6zUMraTzQ3-140" vertex="1">
          <mxGeometry x="190" y="550" width="120" height="80" as="geometry" />
        </mxCell>
        <mxCell id="wG7Q8QUlYoH2plEu2OoV-85" style="edgeStyle=orthogonalEdgeStyle;rounded=0;orthogonalLoop=1;jettySize=auto;html=1;" parent="1" source="98Wi79xMPndo4PKG9-Y--5" target="98Wi79xMPndo4PKG9-Y--7" edge="1">
          <mxGeometry relative="1" as="geometry" />
        </mxCell>
        <mxCell id="98Wi79xMPndo4PKG9-Y--5" value="Other models" style="rounded=0;whiteSpace=wrap;html=1;fillColor=#f8cecc;strokeColor=#b85450;" parent="1" vertex="1">
          <mxGeometry x="780" y="330" width="120" height="60" as="geometry" />
        </mxCell>
        <mxCell id="98Wi79xMPndo4PKG9-Y--7" value="Other models" style="rounded=0;whiteSpace=wrap;html=1;fillColor=#f8cecc;strokeColor=#b85450;" parent="1" vertex="1">
          <mxGeometry x="780" y="425" width="120" height="60" as="geometry" />
        </mxCell>
        <mxCell id="98Wi79xMPndo4PKG9-Y--10" value="&lt;div style=&quot;&quot;&gt;Build modeling summary&lt;/div&gt;" style="rounded=0;whiteSpace=wrap;html=1;align=center;verticalAlign=top;" parent="1" vertex="1">
          <mxGeometry x="990" y="1370" width="740" height="790" as="geometry" />
        </mxCell>
        <mxCell id="98Wi79xMPndo4PKG9-Y--19" value="" style="edgeStyle=orthogonalEdgeStyle;rounded=0;orthogonalLoop=1;jettySize=auto;html=1;" parent="1" source="98Wi79xMPndo4PKG9-Y--16" target="98Wi79xMPndo4PKG9-Y--18" edge="1">
          <mxGeometry relative="1" as="geometry" />
        </mxCell>
        <mxCell id="98Wi79xMPndo4PKG9-Y--16" value="start" style="ellipse;whiteSpace=wrap;html=1;" parent="1" vertex="1">
          <mxGeometry x="1297.5" y="1410" width="120" height="80" as="geometry" />
        </mxCell>
        <mxCell id="98Wi79xMPndo4PKG9-Y--17" value="end" style="ellipse;whiteSpace=wrap;html=1;" parent="1" vertex="1">
          <mxGeometry x="1302.5" y="2050" width="120" height="80" as="geometry" />
        </mxCell>
        <mxCell id="98Wi79xMPndo4PKG9-Y--22" style="edgeStyle=orthogonalEdgeStyle;rounded=0;orthogonalLoop=1;jettySize=auto;html=1;" parent="1" source="98Wi79xMPndo4PKG9-Y--18" target="98Wi79xMPndo4PKG9-Y--20" edge="1">
          <mxGeometry relative="1" as="geometry" />
        </mxCell>
        <mxCell id="98Wi79xMPndo4PKG9-Y--23" style="edgeStyle=orthogonalEdgeStyle;rounded=0;orthogonalLoop=1;jettySize=auto;html=1;" parent="1" source="98Wi79xMPndo4PKG9-Y--18" target="98Wi79xMPndo4PKG9-Y--21" edge="1">
          <mxGeometry relative="1" as="geometry" />
        </mxCell>
        <mxCell id="98Wi79xMPndo4PKG9-Y--18" value="user &lt;br&gt;discipline" style="rhombus;whiteSpace=wrap;html=1;" parent="1" vertex="1">
          <mxGeometry x="1317.5" y="1530" width="80" height="80" as="geometry" />
        </mxCell>
        <mxCell id="98Wi79xMPndo4PKG9-Y--29" style="edgeStyle=orthogonalEdgeStyle;rounded=0;orthogonalLoop=1;jettySize=auto;html=1;" parent="1" source="98Wi79xMPndo4PKG9-Y--20" target="98Wi79xMPndo4PKG9-Y--28" edge="1">
          <mxGeometry relative="1" as="geometry" />
        </mxCell>
        <mxCell id="98Wi79xMPndo4PKG9-Y--30" style="edgeStyle=orthogonalEdgeStyle;rounded=0;orthogonalLoop=1;jettySize=auto;html=1;exitX=0.5;exitY=1;exitDx=0;exitDy=0;" parent="1" source="98Wi79xMPndo4PKG9-Y--20" target="98Wi79xMPndo4PKG9-Y--27" edge="1">
          <mxGeometry relative="1" as="geometry" />
        </mxCell>
        <mxCell id="98Wi79xMPndo4PKG9-Y--20" value="build economic summary" style="rounded=0;whiteSpace=wrap;html=1;" parent="1" vertex="1">
          <mxGeometry x="1082.5" y="1660" width="120" height="60" as="geometry" />
        </mxCell>
        <mxCell id="98Wi79xMPndo4PKG9-Y--31" style="edgeStyle=orthogonalEdgeStyle;rounded=0;orthogonalLoop=1;jettySize=auto;html=1;entryX=0.5;entryY=0;entryDx=0;entryDy=0;exitX=0.5;exitY=1;exitDx=0;exitDy=0;" parent="1" source="98Wi79xMPndo4PKG9-Y--21" target="98Wi79xMPndo4PKG9-Y--27" edge="1">
          <mxGeometry relative="1" as="geometry" />
        </mxCell>
        <mxCell id="98Wi79xMPndo4PKG9-Y--38" style="edgeStyle=orthogonalEdgeStyle;rounded=0;orthogonalLoop=1;jettySize=auto;html=1;exitX=0.5;exitY=1;exitDx=0;exitDy=0;" parent="1" source="98Wi79xMPndo4PKG9-Y--21" target="98Wi79xMPndo4PKG9-Y--37" edge="1">
          <mxGeometry relative="1" as="geometry" />
        </mxCell>
        <mxCell id="98Wi79xMPndo4PKG9-Y--21" value="build engineering summary" style="rounded=0;whiteSpace=wrap;html=1;" parent="1" vertex="1">
          <mxGeometry x="1517.5" y="1660" width="120" height="60" as="geometry" />
        </mxCell>
        <mxCell id="98Wi79xMPndo4PKG9-Y--25" value="" style="edgeStyle=orthogonalEdgeStyle;rounded=0;orthogonalLoop=1;jettySize=auto;html=1;startArrow=none;startFill=0;" parent="1" source="98Wi79xMPndo4PKG9-Y--24" target="98Wi79xMPndo4PKG9-Y--21" edge="1">
          <mxGeometry relative="1" as="geometry" />
        </mxCell>
        <mxCell id="98Wi79xMPndo4PKG9-Y--26" value="" style="edgeStyle=orthogonalEdgeStyle;rounded=0;orthogonalLoop=1;jettySize=auto;html=1;startArrow=none;startFill=0;" parent="1" source="98Wi79xMPndo4PKG9-Y--24" target="98Wi79xMPndo4PKG9-Y--20" edge="1">
          <mxGeometry relative="1" as="geometry" />
        </mxCell>
        <mxCell id="98Wi79xMPndo4PKG9-Y--24" value="FEAT API" style="ellipse;shape=cloud;whiteSpace=wrap;html=1;" parent="1" vertex="1">
          <mxGeometry x="1302.5" y="1650" width="120" height="80" as="geometry" />
        </mxCell>
        <mxCell id="98Wi79xMPndo4PKG9-Y--46" style="edgeStyle=orthogonalEdgeStyle;rounded=0;orthogonalLoop=1;jettySize=auto;html=1;entryX=0.5;entryY=0;entryDx=0;entryDy=0;exitX=0.529;exitY=0.788;exitDx=0;exitDy=0;exitPerimeter=0;" parent="1" source="98Wi79xMPndo4PKG9-Y--27" target="98Wi79xMPndo4PKG9-Y--17" edge="1">
          <mxGeometry relative="1" as="geometry">
            <Array as="points">
              <mxPoint x="1581" y="2000" />
              <mxPoint x="1363" y="2000" />
            </Array>
          </mxGeometry>
        </mxCell>
        <mxCell id="98Wi79xMPndo4PKG9-Y--27" value="modeling output summary" style="shape=document;whiteSpace=wrap;html=1;boundedLbl=1;" parent="1" vertex="1">
          <mxGeometry x="1517.5" y="1870" width="120" height="80" as="geometry" />
        </mxCell>
        <mxCell id="98Wi79xMPndo4PKG9-Y--42" style="edgeStyle=orthogonalEdgeStyle;rounded=0;orthogonalLoop=1;jettySize=auto;html=1;exitX=0.488;exitY=0.838;exitDx=0;exitDy=0;exitPerimeter=0;" parent="1" source="98Wi79xMPndo4PKG9-Y--28" target="98Wi79xMPndo4PKG9-Y--17" edge="1">
          <mxGeometry relative="1" as="geometry">
            <Array as="points">
              <mxPoint x="1141" y="2000" />
              <mxPoint x="1363" y="2000" />
            </Array>
          </mxGeometry>
        </mxCell>
        <mxCell id="98Wi79xMPndo4PKG9-Y--28" value="modeling input summary" style="shape=document;whiteSpace=wrap;html=1;boundedLbl=1;" parent="1" vertex="1">
          <mxGeometry x="1082.5" y="1870" width="120" height="80" as="geometry" />
        </mxCell>
        <mxCell id="98Wi79xMPndo4PKG9-Y--43" value="" style="edgeStyle=orthogonalEdgeStyle;rounded=0;orthogonalLoop=1;jettySize=auto;html=1;" parent="1" source="98Wi79xMPndo4PKG9-Y--37" target="98Wi79xMPndo4PKG9-Y--17" edge="1">
          <mxGeometry relative="1" as="geometry" />
        </mxCell>
        <mxCell id="98Wi79xMPndo4PKG9-Y--37" value="simulation operation summary" style="shape=document;whiteSpace=wrap;html=1;boundedLbl=1;" parent="1" vertex="1">
          <mxGeometry x="1302.5" y="1870" width="120" height="80" as="geometry" />
        </mxCell>
        <mxCell id="98Wi79xMPndo4PKG9-Y--47" value="economic" style="text;html=1;align=center;verticalAlign=middle;whiteSpace=wrap;rounded=0;" parent="1" vertex="1">
          <mxGeometry x="1237.5" y="1530" width="60" height="30" as="geometry" />
        </mxCell>
        <mxCell id="98Wi79xMPndo4PKG9-Y--48" value="engineering" style="text;html=1;align=center;verticalAlign=middle;whiteSpace=wrap;rounded=0;" parent="1" vertex="1">
          <mxGeometry x="1417.5" y="1530" width="60" height="30" as="geometry" />
        </mxCell>
        <mxCell id="pRfy_A6ynVGi48_vsYZs-17" value="" style="edgeStyle=orthogonalEdgeStyle;rounded=0;orthogonalLoop=1;jettySize=auto;html=1;" parent="1" source="pRfy_A6ynVGi48_vsYZs-15" target="pRfy_A6ynVGi48_vsYZs-16" edge="1">
          <mxGeometry relative="1" as="geometry" />
        </mxCell>
        <mxCell id="pRfy_A6ynVGi48_vsYZs-15" value="character" style="html=1;strokeWidth=2;shape=manualInput;whiteSpace=wrap;rounded=1;size=26;arcSize=11;" parent="1" vertex="1">
          <mxGeometry x="1930" y="1930" width="100" height="60" as="geometry" />
        </mxCell>
        <mxCell id="pRfy_A6ynVGi48_vsYZs-19" value="" style="edgeStyle=orthogonalEdgeStyle;rounded=0;orthogonalLoop=1;jettySize=auto;html=1;" parent="1" source="pRfy_A6ynVGi48_vsYZs-16" target="pRfy_A6ynVGi48_vsYZs-18" edge="1">
          <mxGeometry relative="1" as="geometry" />
        </mxCell>
        <mxCell id="pRfy_A6ynVGi48_vsYZs-16" value="UI" style="rounded=0;whiteSpace=wrap;html=1;" parent="1" vertex="1">
          <mxGeometry x="2125" y="1930" width="120" height="60" as="geometry" />
        </mxCell>
        <mxCell id="pRfy_A6ynVGi48_vsYZs-21" value="" style="edgeStyle=orthogonalEdgeStyle;rounded=0;orthogonalLoop=1;jettySize=auto;html=1;" parent="1" source="pRfy_A6ynVGi48_vsYZs-18" target="pRfy_A6ynVGi48_vsYZs-20" edge="1">
          <mxGeometry relative="1" as="geometry" />
        </mxCell>
        <mxCell id="pRfy_A6ynVGi48_vsYZs-18" value="API" style="rounded=0;whiteSpace=wrap;html=1;" parent="1" vertex="1">
          <mxGeometry x="2125" y="2060" width="120" height="60" as="geometry" />
        </mxCell>
        <mxCell id="pRfy_A6ynVGi48_vsYZs-20" value="DB" style="rounded=0;whiteSpace=wrap;html=1;" parent="1" vertex="1">
          <mxGeometry x="2125" y="2180" width="120" height="60" as="geometry" />
        </mxCell>
        <mxCell id="wG7Q8QUlYoH2plEu2OoV-1" value="" style="swimlane;startSize=0;" parent="1" vertex="1">
          <mxGeometry x="-1670" y="190" width="410" height="605" as="geometry" />
        </mxCell>
        <mxCell id="-fWQIyGvg7Xg8wQxf-oc-30" value="" style="edgeStyle=orthogonalEdgeStyle;rounded=0;orthogonalLoop=1;jettySize=auto;html=1;" parent="wG7Q8QUlYoH2plEu2OoV-1" source="-fWQIyGvg7Xg8wQxf-oc-27" target="-fWQIyGvg7Xg8wQxf-oc-28" edge="1">
          <mxGeometry relative="1" as="geometry" />
        </mxCell>
        <mxCell id="-fWQIyGvg7Xg8wQxf-oc-27" value="action" style="rounded=0;whiteSpace=wrap;html=1;" parent="wG7Q8QUlYoH2plEu2OoV-1" vertex="1">
          <mxGeometry x="65" y="275" width="120" height="60" as="geometry" />
        </mxCell>
        <mxCell id="wG7Q8QUlYoH2plEu2OoV-5" value="" style="edgeStyle=orthogonalEdgeStyle;rounded=0;orthogonalLoop=1;jettySize=auto;html=1;" parent="wG7Q8QUlYoH2plEu2OoV-1" source="-fWQIyGvg7Xg8wQxf-oc-28" target="wG7Q8QUlYoH2plEu2OoV-4" edge="1">
          <mxGeometry relative="1" as="geometry" />
        </mxCell>
        <mxCell id="wG7Q8QUlYoH2plEu2OoV-17" value="" style="edgeStyle=orthogonalEdgeStyle;rounded=0;orthogonalLoop=1;jettySize=auto;html=1;startArrow=none;startFill=0;" parent="wG7Q8QUlYoH2plEu2OoV-1" source="-fWQIyGvg7Xg8wQxf-oc-28" target="wG7Q8QUlYoH2plEu2OoV-16" edge="1">
          <mxGeometry relative="1" as="geometry" />
        </mxCell>
        <mxCell id="-fWQIyGvg7Xg8wQxf-oc-28" value="convert to standard" style="rounded=0;whiteSpace=wrap;html=1;" parent="wG7Q8QUlYoH2plEu2OoV-1" vertex="1">
          <mxGeometry x="65" y="385" width="120" height="60" as="geometry" />
        </mxCell>
        <mxCell id="wG7Q8QUlYoH2plEu2OoV-14" value="" style="edgeStyle=orthogonalEdgeStyle;rounded=0;orthogonalLoop=1;jettySize=auto;html=1;" parent="wG7Q8QUlYoH2plEu2OoV-1" source="wG7Q8QUlYoH2plEu2OoV-2" target="wG7Q8QUlYoH2plEu2OoV-13" edge="1">
          <mxGeometry relative="1" as="geometry" />
        </mxCell>
        <mxCell id="wG7Q8QUlYoH2plEu2OoV-2" value="start" style="ellipse;whiteSpace=wrap;html=1;" parent="wG7Q8QUlYoH2plEu2OoV-1" vertex="1">
          <mxGeometry x="65" y="20" width="120" height="80" as="geometry" />
        </mxCell>
        <mxCell id="wG7Q8QUlYoH2plEu2OoV-4" value="end" style="ellipse;whiteSpace=wrap;html=1;" parent="wG7Q8QUlYoH2plEu2OoV-1" vertex="1">
          <mxGeometry x="65" y="484" width="120" height="80" as="geometry" />
        </mxCell>
        <mxCell id="wG7Q8QUlYoH2plEu2OoV-15" style="edgeStyle=orthogonalEdgeStyle;rounded=0;orthogonalLoop=1;jettySize=auto;html=1;entryX=0.5;entryY=0;entryDx=0;entryDy=0;" parent="wG7Q8QUlYoH2plEu2OoV-1" source="wG7Q8QUlYoH2plEu2OoV-13" target="-fWQIyGvg7Xg8wQxf-oc-27" edge="1">
          <mxGeometry relative="1" as="geometry" />
        </mxCell>
        <mxCell id="wG7Q8QUlYoH2plEu2OoV-13" value="ingest data" style="shape=parallelogram;html=1;strokeWidth=2;perimeter=parallelogramPerimeter;whiteSpace=wrap;rounded=1;arcSize=12;size=0.23;" parent="wG7Q8QUlYoH2plEu2OoV-1" vertex="1">
          <mxGeometry x="75" y="145" width="100" height="60" as="geometry" />
        </mxCell>
        <mxCell id="wG7Q8QUlYoH2plEu2OoV-16" value="API Store" style="ellipse;shape=cloud;whiteSpace=wrap;html=1;" parent="wG7Q8QUlYoH2plEu2OoV-1" vertex="1">
          <mxGeometry x="265" y="375" width="120" height="80" as="geometry" />
        </mxCell>
        <mxCell id="wG7Q8QUlYoH2plEu2OoV-22" value="Data Module Template" style="shape=module;align=left;spacingLeft=20;align=center;verticalAlign=top;whiteSpace=wrap;html=1;fontStyle=1" parent="wG7Q8QUlYoH2plEu2OoV-1" vertex="1">
          <mxGeometry x="253.75" y="30" width="100" height="50" as="geometry" />
        </mxCell>
        <mxCell id="wG7Q8QUlYoH2plEu2OoV-31" value="Each Data Module must inherits from this template. The output of each module is required to follow a set of minimum requirements" style="text;html=1;align=left;verticalAlign=middle;whiteSpace=wrap;rounded=0;" parent="wG7Q8QUlYoH2plEu2OoV-1" vertex="1">
          <mxGeometry x="253.75" y="90" width="142.5" height="100" as="geometry" />
        </mxCell>
        <mxCell id="wG7Q8QUlYoH2plEu2OoV-38" value="store output and generate keys specific to study" style="text;html=1;align=center;verticalAlign=middle;whiteSpace=wrap;rounded=0;" parent="wG7Q8QUlYoH2plEu2OoV-1" vertex="1">
          <mxGeometry x="195" y="420" width="80" height="75" as="geometry" />
        </mxCell>
        <mxCell id="igHUlAx1EoBNNh3pSHyk-80" value="Delegate data ingestion strategy to the concrete module" style="text;html=1;align=left;verticalAlign=middle;whiteSpace=wrap;rounded=0;" vertex="1" parent="wG7Q8QUlYoH2plEu2OoV-1">
          <mxGeometry x="150" y="200" width="170" height="75" as="geometry" />
        </mxCell>
        <mxCell id="wG7Q8QUlYoH2plEu2OoV-23" value="" style="swimlane;startSize=0;" parent="1" vertex="1">
          <mxGeometry x="-1160" y="190" width="590" height="560" as="geometry" />
        </mxCell>
        <mxCell id="jp3aCGEwkOMF9N7P8e_z-12" style="edgeStyle=orthogonalEdgeStyle;rounded=0;orthogonalLoop=1;jettySize=auto;html=1;entryX=0.5;entryY=1;entryDx=0;entryDy=0;" parent="wG7Q8QUlYoH2plEu2OoV-23" source="wG7Q8QUlYoH2plEu2OoV-18" target="wG7Q8QUlYoH2plEu2OoV-87" edge="1">
          <mxGeometry relative="1" as="geometry">
            <Array as="points">
              <mxPoint x="80" y="500" />
              <mxPoint x="485" y="500" />
            </Array>
          </mxGeometry>
        </mxCell>
        <mxCell id="wG7Q8QUlYoH2plEu2OoV-18" value="Generate hazard" style="shape=module;align=left;spacingLeft=20;align=center;verticalAlign=middle;whiteSpace=wrap;html=1;fillColor=#f5f5f5;strokeColor=#666666;fontColor=#333333;" parent="wG7Q8QUlYoH2plEu2OoV-23" vertex="1">
          <mxGeometry x="30" y="397.5" width="100" height="72.5" as="geometry" />
        </mxCell>
        <mxCell id="jp3aCGEwkOMF9N7P8e_z-13" style="edgeStyle=orthogonalEdgeStyle;rounded=0;orthogonalLoop=1;jettySize=auto;html=1;entryX=0.5;entryY=1;entryDx=0;entryDy=0;" parent="wG7Q8QUlYoH2plEu2OoV-23" source="wG7Q8QUlYoH2plEu2OoV-19" target="wG7Q8QUlYoH2plEu2OoV-87" edge="1">
          <mxGeometry relative="1" as="geometry">
            <Array as="points">
              <mxPoint x="211" y="500" />
              <mxPoint x="485" y="500" />
            </Array>
          </mxGeometry>
        </mxCell>
        <mxCell id="wG7Q8QUlYoH2plEu2OoV-19" value="Generate system response elements" style="shape=module;align=left;spacingLeft=20;align=center;verticalAlign=middle;whiteSpace=wrap;html=1;fillColor=#f5f5f5;strokeColor=#666666;fontColor=#333333;" parent="wG7Q8QUlYoH2plEu2OoV-23" vertex="1">
          <mxGeometry x="162" y="397.5" width="100" height="72.5" as="geometry" />
        </mxCell>
        <mxCell id="jp3aCGEwkOMF9N7P8e_z-15" style="edgeStyle=orthogonalEdgeStyle;rounded=0;orthogonalLoop=1;jettySize=auto;html=1;entryX=0.5;entryY=1;entryDx=0;entryDy=0;" parent="wG7Q8QUlYoH2plEu2OoV-23" source="wG7Q8QUlYoH2plEu2OoV-20" target="wG7Q8QUlYoH2plEu2OoV-87" edge="1">
          <mxGeometry relative="1" as="geometry">
            <Array as="points">
              <mxPoint x="338" y="500" />
              <mxPoint x="485" y="500" />
            </Array>
          </mxGeometry>
        </mxCell>
        <mxCell id="wG7Q8QUlYoH2plEu2OoV-20" value="Generate assets" style="shape=module;align=left;spacingLeft=20;align=center;verticalAlign=middle;whiteSpace=wrap;html=1;fillColor=#f5f5f5;strokeColor=#666666;fontColor=#333333;" parent="wG7Q8QUlYoH2plEu2OoV-23" vertex="1">
          <mxGeometry x="285" y="397.5" width="100" height="72.5" as="geometry" />
        </mxCell>
        <mxCell id="igHUlAx1EoBNNh3pSHyk-79" value="" style="edgeStyle=orthogonalEdgeStyle;rounded=0;orthogonalLoop=1;jettySize=auto;html=1;" edge="1" parent="wG7Q8QUlYoH2plEu2OoV-23" source="PQ4RPiRYlV6zUMraTzQ3-149" target="jp3aCGEwkOMF9N7P8e_z-2">
          <mxGeometry relative="1" as="geometry" />
        </mxCell>
        <mxCell id="PQ4RPiRYlV6zUMraTzQ3-149" value="start" style="ellipse;whiteSpace=wrap;html=1;" parent="wG7Q8QUlYoH2plEu2OoV-23" vertex="1">
          <mxGeometry x="160" y="50" width="120" height="80" as="geometry" />
        </mxCell>
        <mxCell id="PQ4RPiRYlV6zUMraTzQ3-150" value="end" style="ellipse;whiteSpace=wrap;html=1;" parent="wG7Q8QUlYoH2plEu2OoV-23" vertex="1">
          <mxGeometry x="425" y="190" width="120" height="80" as="geometry" />
        </mxCell>
        <mxCell id="wG7Q8QUlYoH2plEu2OoV-29" value="&lt;h1 style=&quot;margin-top: 0px;&quot;&gt;Data Generation Subsystem&lt;/h1&gt;&lt;p&gt;The Data Generation Subsystem centers around three &quot;Data Modules&quot; with each inherits from the Data Module Template&amp;nbsp;&lt;/p&gt;" style="text;html=1;whiteSpace=wrap;overflow=hidden;rounded=0;" parent="wG7Q8QUlYoH2plEu2OoV-23" vertex="1">
          <mxGeometry x="365" y="10" width="180" height="180" as="geometry" />
        </mxCell>
        <mxCell id="wG7Q8QUlYoH2plEu2OoV-68" value="" style="edgeStyle=orthogonalEdgeStyle;rounded=0;orthogonalLoop=1;jettySize=auto;html=1;" parent="wG7Q8QUlYoH2plEu2OoV-23" source="wG7Q8QUlYoH2plEu2OoV-64" target="PQ4RPiRYlV6zUMraTzQ3-150" edge="1">
          <mxGeometry relative="1" as="geometry" />
        </mxCell>
        <mxCell id="wG7Q8QUlYoH2plEu2OoV-64" value="generate general study input" style="rounded=0;whiteSpace=wrap;html=1;" parent="wG7Q8QUlYoH2plEu2OoV-23" vertex="1">
          <mxGeometry x="425" y="300" width="120" height="60" as="geometry" />
        </mxCell>
        <mxCell id="wG7Q8QUlYoH2plEu2OoV-89" value="" style="edgeStyle=orthogonalEdgeStyle;rounded=0;orthogonalLoop=1;jettySize=auto;html=1;" parent="wG7Q8QUlYoH2plEu2OoV-23" source="wG7Q8QUlYoH2plEu2OoV-87" target="wG7Q8QUlYoH2plEu2OoV-64" edge="1">
          <mxGeometry relative="1" as="geometry" />
        </mxCell>
        <mxCell id="wG7Q8QUlYoH2plEu2OoV-87" value="Generate Alternatives" style="rounded=0;whiteSpace=wrap;html=1;verticalAlign=middle;" parent="wG7Q8QUlYoH2plEu2OoV-23" vertex="1">
          <mxGeometry x="425" y="397.5" width="120" height="72.5" as="geometry" />
        </mxCell>
        <mxCell id="jp3aCGEwkOMF9N7P8e_z-5" style="edgeStyle=orthogonalEdgeStyle;rounded=0;orthogonalLoop=1;jettySize=auto;html=1;" parent="wG7Q8QUlYoH2plEu2OoV-23" source="jp3aCGEwkOMF9N7P8e_z-2" target="wG7Q8QUlYoH2plEu2OoV-18" edge="1">
          <mxGeometry relative="1" as="geometry">
            <Array as="points">
              <mxPoint x="220" y="340" />
              <mxPoint x="80" y="340" />
            </Array>
          </mxGeometry>
        </mxCell>
        <mxCell id="jp3aCGEwkOMF9N7P8e_z-17" style="edgeStyle=orthogonalEdgeStyle;rounded=0;orthogonalLoop=1;jettySize=auto;html=1;" parent="wG7Q8QUlYoH2plEu2OoV-23" source="jp3aCGEwkOMF9N7P8e_z-2" target="wG7Q8QUlYoH2plEu2OoV-20" edge="1">
          <mxGeometry relative="1" as="geometry">
            <Array as="points">
              <mxPoint x="220" y="340" />
              <mxPoint x="335" y="340" />
            </Array>
          </mxGeometry>
        </mxCell>
        <mxCell id="jp3aCGEwkOMF9N7P8e_z-2" value="which Data Module?" style="strokeWidth=2;html=1;shape=mxgraph.flowchart.decision;whiteSpace=wrap;" parent="wG7Q8QUlYoH2plEu2OoV-23" vertex="1">
          <mxGeometry x="170" y="190" width="100" height="100" as="geometry" />
        </mxCell>
        <mxCell id="jp3aCGEwkOMF9N7P8e_z-7" style="edgeStyle=orthogonalEdgeStyle;rounded=0;orthogonalLoop=1;jettySize=auto;html=1;entryX=0.58;entryY=0.043;entryDx=0;entryDy=0;entryPerimeter=0;" parent="wG7Q8QUlYoH2plEu2OoV-23" source="jp3aCGEwkOMF9N7P8e_z-2" target="wG7Q8QUlYoH2plEu2OoV-19" edge="1">
          <mxGeometry relative="1" as="geometry" />
        </mxCell>
        <mxCell id="igHUlAx1EoBNNh3pSHyk-22" value="Parallelism during data module instantiation as multiple modelers may work concurrently&amp;nbsp;&amp;nbsp;" style="text;html=1;align=left;verticalAlign=middle;whiteSpace=wrap;rounded=0;" vertex="1" parent="wG7Q8QUlYoH2plEu2OoV-23">
          <mxGeometry x="50" y="270" width="150" height="55" as="geometry" />
        </mxCell>
        <mxCell id="wG7Q8QUlYoH2plEu2OoV-39" value="" style="swimlane;startSize=0;" parent="1" vertex="1">
          <mxGeometry x="-1070" y="920" width="890" height="790" as="geometry" />
        </mxCell>
        <mxCell id="igHUlAx1EoBNNh3pSHyk-92" value="" style="edgeStyle=orthogonalEdgeStyle;rounded=0;orthogonalLoop=1;jettySize=auto;html=1;" edge="1" parent="wG7Q8QUlYoH2plEu2OoV-39" source="wG7Q8QUlYoH2plEu2OoV-49" target="igHUlAx1EoBNNh3pSHyk-91">
          <mxGeometry relative="1" as="geometry" />
        </mxCell>
        <mxCell id="wG7Q8QUlYoH2plEu2OoV-49" value="start" style="ellipse;whiteSpace=wrap;html=1;" parent="wG7Q8QUlYoH2plEu2OoV-39" vertex="1">
          <mxGeometry x="125" y="75" width="120" height="80" as="geometry" />
        </mxCell>
        <mxCell id="wG7Q8QUlYoH2plEu2OoV-61" value="end" style="ellipse;whiteSpace=wrap;html=1;" parent="wG7Q8QUlYoH2plEu2OoV-39" vertex="1">
          <mxGeometry x="125" y="655" width="120" height="80" as="geometry" />
        </mxCell>
        <mxCell id="wG7Q8QUlYoH2plEu2OoV-62" value="&lt;h1 style=&quot;margin-top: 0px;&quot;&gt;Modeling Subsystem&lt;/h1&gt;&lt;p&gt;The Data Generation Subsystem affixes the lifecycle framework&lt;/p&gt;" style="text;html=1;whiteSpace=wrap;overflow=hidden;rounded=0;" parent="wG7Q8QUlYoH2plEu2OoV-39" vertex="1">
          <mxGeometry x="690" y="10" width="180" height="180" as="geometry" />
        </mxCell>
        <mxCell id="igHUlAx1EoBNNh3pSHyk-94" style="edgeStyle=orthogonalEdgeStyle;rounded=0;orthogonalLoop=1;jettySize=auto;html=1;exitX=0;exitY=0.5;exitDx=0;exitDy=0;exitPerimeter=0;" edge="1" parent="wG7Q8QUlYoH2plEu2OoV-39" source="igHUlAx1EoBNNh3pSHyk-91">
          <mxGeometry relative="1" as="geometry">
            <mxPoint x="90" y="360" as="targetPoint" />
          </mxGeometry>
        </mxCell>
        <mxCell id="igHUlAx1EoBNNh3pSHyk-167" value="" style="edgeStyle=orthogonalEdgeStyle;rounded=0;orthogonalLoop=1;jettySize=auto;html=1;" edge="1" parent="wG7Q8QUlYoH2plEu2OoV-39" source="igHUlAx1EoBNNh3pSHyk-91" target="igHUlAx1EoBNNh3pSHyk-129">
          <mxGeometry relative="1" as="geometry" />
        </mxCell>
        <mxCell id="igHUlAx1EoBNNh3pSHyk-91" value="required &lt;br&gt;Data Modules instantiated?" style="strokeWidth=2;html=1;shape=mxgraph.flowchart.decision;whiteSpace=wrap;" vertex="1" parent="wG7Q8QUlYoH2plEu2OoV-39">
          <mxGeometry x="130" y="205" width="110" height="110" as="geometry" />
        </mxCell>
        <mxCell id="igHUlAx1EoBNNh3pSHyk-174" style="edgeStyle=orthogonalEdgeStyle;rounded=0;orthogonalLoop=1;jettySize=auto;html=1;entryX=0;entryY=0.5;entryDx=0;entryDy=0;" edge="1" parent="wG7Q8QUlYoH2plEu2OoV-39" source="igHUlAx1EoBNNh3pSHyk-93" target="wG7Q8QUlYoH2plEu2OoV-61">
          <mxGeometry relative="1" as="geometry" />
        </mxCell>
        <mxCell id="igHUlAx1EoBNNh3pSHyk-93" value="identify missing modules&amp;nbsp;" style="rounded=0;whiteSpace=wrap;html=1;" vertex="1" parent="wG7Q8QUlYoH2plEu2OoV-39">
          <mxGeometry x="25" y="315" width="120" height="60" as="geometry" />
        </mxCell>
        <mxCell id="igHUlAx1EoBNNh3pSHyk-100" value="" style="edgeStyle=orthogonalEdgeStyle;rounded=0;orthogonalLoop=1;jettySize=auto;html=1;" edge="1" parent="wG7Q8QUlYoH2plEu2OoV-39" source="igHUlAx1EoBNNh3pSHyk-97" target="igHUlAx1EoBNNh3pSHyk-99">
          <mxGeometry relative="1" as="geometry" />
        </mxCell>
        <mxCell id="igHUlAx1EoBNNh3pSHyk-97" value="Concrete modeling module" style="shape=module;align=left;spacingLeft=20;align=center;verticalAlign=top;whiteSpace=wrap;html=1;fontStyle=0;fillColor=#f5f5f5;strokeColor=#666666;fontColor=#333333;" vertex="1" parent="wG7Q8QUlYoH2plEu2OoV-39">
          <mxGeometry x="625.95" y="340" width="100" height="65" as="geometry" />
        </mxCell>
        <mxCell id="igHUlAx1EoBNNh3pSHyk-184" style="edgeStyle=orthogonalEdgeStyle;rounded=0;orthogonalLoop=1;jettySize=auto;html=1;entryX=1;entryY=0.5;entryDx=0;entryDy=0;" edge="1" parent="wG7Q8QUlYoH2plEu2OoV-39" source="igHUlAx1EoBNNh3pSHyk-99" target="igHUlAx1EoBNNh3pSHyk-97">
          <mxGeometry relative="1" as="geometry">
            <Array as="points">
              <mxPoint x="770" y="500" />
              <mxPoint x="770" y="372" />
            </Array>
          </mxGeometry>
        </mxCell>
        <mxCell id="igHUlAx1EoBNNh3pSHyk-99" value="all Modeling Modules &lt;br&gt;finished?" style="strokeWidth=2;html=1;shape=mxgraph.flowchart.decision;whiteSpace=wrap;" vertex="1" parent="wG7Q8QUlYoH2plEu2OoV-39">
          <mxGeometry x="625.95" y="450" width="100" height="100" as="geometry" />
        </mxCell>
        <mxCell id="igHUlAx1EoBNNh3pSHyk-104" value="yes" style="text;html=1;align=center;verticalAlign=middle;whiteSpace=wrap;rounded=0;" vertex="1" parent="wG7Q8QUlYoH2plEu2OoV-39">
          <mxGeometry x="390" y="470" width="60" height="30" as="geometry" />
        </mxCell>
        <mxCell id="igHUlAx1EoBNNh3pSHyk-169" value="" style="edgeStyle=orthogonalEdgeStyle;rounded=0;orthogonalLoop=1;jettySize=auto;html=1;" edge="1" parent="wG7Q8QUlYoH2plEu2OoV-39" source="igHUlAx1EoBNNh3pSHyk-129" target="igHUlAx1EoBNNh3pSHyk-156">
          <mxGeometry relative="1" as="geometry" />
        </mxCell>
        <mxCell id="igHUlAx1EoBNNh3pSHyk-172" value="" style="edgeStyle=orthogonalEdgeStyle;rounded=0;orthogonalLoop=1;jettySize=auto;html=1;" edge="1" parent="wG7Q8QUlYoH2plEu2OoV-39" source="igHUlAx1EoBNNh3pSHyk-129" target="igHUlAx1EoBNNh3pSHyk-133">
          <mxGeometry relative="1" as="geometry" />
        </mxCell>
        <mxCell id="igHUlAx1EoBNNh3pSHyk-129" value="need seed generation?" style="strokeWidth=2;html=1;shape=mxgraph.flowchart.decision;whiteSpace=wrap;" vertex="1" parent="wG7Q8QUlYoH2plEu2OoV-39">
          <mxGeometry x="290" y="205" width="110" height="110" as="geometry" />
        </mxCell>
        <mxCell id="igHUlAx1EoBNNh3pSHyk-173" style="edgeStyle=orthogonalEdgeStyle;rounded=0;orthogonalLoop=1;jettySize=auto;html=1;" edge="1" parent="wG7Q8QUlYoH2plEu2OoV-39" source="igHUlAx1EoBNNh3pSHyk-133" target="igHUlAx1EoBNNh3pSHyk-156">
          <mxGeometry relative="1" as="geometry" />
        </mxCell>
        <mxCell id="igHUlAx1EoBNNh3pSHyk-133" value="generate seed" style="rounded=0;whiteSpace=wrap;html=1;" vertex="1" parent="wG7Q8QUlYoH2plEu2OoV-39">
          <mxGeometry x="285" y="85" width="120" height="60" as="geometry" />
        </mxCell>
        <mxCell id="igHUlAx1EoBNNh3pSHyk-170" value="" style="edgeStyle=orthogonalEdgeStyle;rounded=0;orthogonalLoop=1;jettySize=auto;html=1;" edge="1" parent="wG7Q8QUlYoH2plEu2OoV-39" source="igHUlAx1EoBNNh3pSHyk-156" target="igHUlAx1EoBNNh3pSHyk-164">
          <mxGeometry relative="1" as="geometry" />
        </mxCell>
        <mxCell id="igHUlAx1EoBNNh3pSHyk-156" value="choose alternative" style="rounded=0;whiteSpace=wrap;html=1;" vertex="1" parent="wG7Q8QUlYoH2plEu2OoV-39">
          <mxGeometry x="440" y="230" width="120" height="60" as="geometry" />
        </mxCell>
        <mxCell id="igHUlAx1EoBNNh3pSHyk-160" style="edgeStyle=orthogonalEdgeStyle;rounded=0;orthogonalLoop=1;jettySize=auto;html=1;entryX=0.5;entryY=1;entryDx=0;entryDy=0;" edge="1" parent="wG7Q8QUlYoH2plEu2OoV-39" source="igHUlAx1EoBNNh3pSHyk-159" target="igHUlAx1EoBNNh3pSHyk-156">
          <mxGeometry relative="1" as="geometry" />
        </mxCell>
        <mxCell id="igHUlAx1EoBNNh3pSHyk-162" value="" style="edgeStyle=orthogonalEdgeStyle;rounded=0;orthogonalLoop=1;jettySize=auto;html=1;" edge="1" parent="wG7Q8QUlYoH2plEu2OoV-39" source="igHUlAx1EoBNNh3pSHyk-159" target="wG7Q8QUlYoH2plEu2OoV-61">
          <mxGeometry relative="1" as="geometry" />
        </mxCell>
        <mxCell id="igHUlAx1EoBNNh3pSHyk-159" value="all alternatives&lt;br&gt;finished?" style="strokeWidth=2;html=1;shape=mxgraph.flowchart.decision;whiteSpace=wrap;" vertex="1" parent="wG7Q8QUlYoH2plEu2OoV-39">
          <mxGeometry x="450" y="450" width="100" height="100" as="geometry" />
        </mxCell>
        <mxCell id="igHUlAx1EoBNNh3pSHyk-161" value="no" style="text;html=1;align=center;verticalAlign=middle;whiteSpace=wrap;rounded=0;" vertex="1" parent="wG7Q8QUlYoH2plEu2OoV-39">
          <mxGeometry x="710" y="500" width="60" height="30" as="geometry" />
        </mxCell>
        <mxCell id="igHUlAx1EoBNNh3pSHyk-187" value="" style="edgeStyle=orthogonalEdgeStyle;rounded=0;orthogonalLoop=1;jettySize=auto;html=1;" edge="1" parent="wG7Q8QUlYoH2plEu2OoV-39" source="igHUlAx1EoBNNh3pSHyk-164" target="igHUlAx1EoBNNh3pSHyk-97">
          <mxGeometry relative="1" as="geometry" />
        </mxCell>
        <mxCell id="igHUlAx1EoBNNh3pSHyk-164" value="choose lifecycle" style="rounded=0;whiteSpace=wrap;html=1;" vertex="1" parent="wG7Q8QUlYoH2plEu2OoV-39">
          <mxGeometry x="615" y="230" width="120" height="60" as="geometry" />
        </mxCell>
        <mxCell id="igHUlAx1EoBNNh3pSHyk-176" style="edgeStyle=orthogonalEdgeStyle;rounded=0;orthogonalLoop=1;jettySize=auto;html=1;entryX=1;entryY=0.5;entryDx=0;entryDy=0;" edge="1" parent="wG7Q8QUlYoH2plEu2OoV-39" source="igHUlAx1EoBNNh3pSHyk-175" target="igHUlAx1EoBNNh3pSHyk-164">
          <mxGeometry relative="1" as="geometry">
            <Array as="points">
              <mxPoint x="810" y="695" />
              <mxPoint x="810" y="260" />
            </Array>
          </mxGeometry>
        </mxCell>
        <mxCell id="igHUlAx1EoBNNh3pSHyk-182" value="" style="edgeStyle=orthogonalEdgeStyle;rounded=0;orthogonalLoop=1;jettySize=auto;html=1;" edge="1" parent="wG7Q8QUlYoH2plEu2OoV-39" source="igHUlAx1EoBNNh3pSHyk-175" target="igHUlAx1EoBNNh3pSHyk-159">
          <mxGeometry relative="1" as="geometry" />
        </mxCell>
        <mxCell id="igHUlAx1EoBNNh3pSHyk-175" value="lifecycle&lt;br&gt;finished?" style="strokeWidth=2;html=1;shape=mxgraph.flowchart.decision;whiteSpace=wrap;" vertex="1" parent="wG7Q8QUlYoH2plEu2OoV-39">
          <mxGeometry x="450" y="645" width="100" height="100" as="geometry" />
        </mxCell>
        <mxCell id="igHUlAx1EoBNNh3pSHyk-178" value="yes" style="text;html=1;align=center;verticalAlign=middle;whiteSpace=wrap;rounded=0;" vertex="1" parent="wG7Q8QUlYoH2plEu2OoV-39">
          <mxGeometry x="500" y="605" width="60" height="30" as="geometry" />
        </mxCell>
        <mxCell id="igHUlAx1EoBNNh3pSHyk-185" style="edgeStyle=orthogonalEdgeStyle;rounded=0;orthogonalLoop=1;jettySize=auto;html=1;entryX=0.5;entryY=1;entryDx=0;entryDy=0;entryPerimeter=0;jumpStyle=arc;" edge="1" parent="wG7Q8QUlYoH2plEu2OoV-39" source="igHUlAx1EoBNNh3pSHyk-99" target="igHUlAx1EoBNNh3pSHyk-175">
          <mxGeometry relative="1" as="geometry">
            <Array as="points">
              <mxPoint x="675" y="765" />
              <mxPoint x="500" y="765" />
            </Array>
          </mxGeometry>
        </mxCell>
        <mxCell id="igHUlAx1EoBNNh3pSHyk-186" value="yes" style="text;html=1;align=center;verticalAlign=middle;whiteSpace=wrap;rounded=0;" vertex="1" parent="wG7Q8QUlYoH2plEu2OoV-39">
          <mxGeometry x="675" y="550" width="60" height="30" as="geometry" />
        </mxCell>
        <mxCell id="wG7Q8QUlYoH2plEu2OoV-70" value="" style="swimlane;startSize=0;" parent="1" vertex="1">
          <mxGeometry x="-1660" y="920" width="530" height="740" as="geometry" />
        </mxCell>
        <mxCell id="wG7Q8QUlYoH2plEu2OoV-71" value="" style="edgeStyle=orthogonalEdgeStyle;rounded=0;orthogonalLoop=1;jettySize=auto;html=1;" parent="wG7Q8QUlYoH2plEu2OoV-70" source="wG7Q8QUlYoH2plEu2OoV-72" target="wG7Q8QUlYoH2plEu2OoV-75" edge="1">
          <mxGeometry relative="1" as="geometry" />
        </mxCell>
        <mxCell id="wG7Q8QUlYoH2plEu2OoV-72" value="action" style="rounded=0;whiteSpace=wrap;html=1;" parent="wG7Q8QUlYoH2plEu2OoV-70" vertex="1">
          <mxGeometry x="175" y="400" width="120" height="60" as="geometry" />
        </mxCell>
        <mxCell id="wG7Q8QUlYoH2plEu2OoV-73" value="" style="edgeStyle=orthogonalEdgeStyle;rounded=0;orthogonalLoop=1;jettySize=auto;html=1;" parent="wG7Q8QUlYoH2plEu2OoV-70" source="wG7Q8QUlYoH2plEu2OoV-75" target="wG7Q8QUlYoH2plEu2OoV-78" edge="1">
          <mxGeometry relative="1" as="geometry" />
        </mxCell>
        <mxCell id="wG7Q8QUlYoH2plEu2OoV-75" value="convert to standard" style="rounded=0;whiteSpace=wrap;html=1;" parent="wG7Q8QUlYoH2plEu2OoV-70" vertex="1">
          <mxGeometry x="175" y="505" width="120" height="60" as="geometry" />
        </mxCell>
        <mxCell id="igHUlAx1EoBNNh3pSHyk-119" value="" style="edgeStyle=orthogonalEdgeStyle;rounded=0;orthogonalLoop=1;jettySize=auto;html=1;" edge="1" parent="wG7Q8QUlYoH2plEu2OoV-70" source="wG7Q8QUlYoH2plEu2OoV-77" target="igHUlAx1EoBNNh3pSHyk-9">
          <mxGeometry relative="1" as="geometry" />
        </mxCell>
        <mxCell id="wG7Q8QUlYoH2plEu2OoV-77" value="start" style="ellipse;whiteSpace=wrap;html=1;" parent="wG7Q8QUlYoH2plEu2OoV-70" vertex="1">
          <mxGeometry x="175" y="20" width="120" height="80" as="geometry" />
        </mxCell>
        <mxCell id="wG7Q8QUlYoH2plEu2OoV-78" value="end" style="ellipse;whiteSpace=wrap;html=1;" parent="wG7Q8QUlYoH2plEu2OoV-70" vertex="1">
          <mxGeometry x="175" y="590" width="120" height="80" as="geometry" />
        </mxCell>
        <mxCell id="igHUlAx1EoBNNh3pSHyk-20" value="" style="edgeStyle=orthogonalEdgeStyle;rounded=0;orthogonalLoop=1;jettySize=auto;html=1;" edge="1" parent="wG7Q8QUlYoH2plEu2OoV-70" source="wG7Q8QUlYoH2plEu2OoV-80" target="wG7Q8QUlYoH2plEu2OoV-72">
          <mxGeometry relative="1" as="geometry" />
        </mxCell>
        <mxCell id="wG7Q8QUlYoH2plEu2OoV-80" value="ingest data" style="shape=parallelogram;html=1;strokeWidth=2;perimeter=parallelogramPerimeter;whiteSpace=wrap;rounded=1;arcSize=12;size=0.23;" parent="wG7Q8QUlYoH2plEu2OoV-70" vertex="1">
          <mxGeometry x="185" y="270" width="100" height="60" as="geometry" />
        </mxCell>
        <mxCell id="wG7Q8QUlYoH2plEu2OoV-82" value="Modeling Module Template" style="shape=module;align=left;spacingLeft=20;align=center;verticalAlign=top;whiteSpace=wrap;html=1;fontStyle=1" parent="wG7Q8QUlYoH2plEu2OoV-70" vertex="1">
          <mxGeometry x="383" y="20" width="100" height="50" as="geometry" />
        </mxCell>
        <mxCell id="wG7Q8QUlYoH2plEu2OoV-83" value="Each Modeling Module must identified (1) the required set of Data Modules and (2) compatible precedent / antecedent concrete Modeling Modules" style="text;html=1;align=left;verticalAlign=middle;whiteSpace=wrap;rounded=0;" parent="wG7Q8QUlYoH2plEu2OoV-70" vertex="1">
          <mxGeometry x="383" y="90" width="142.5" height="100" as="geometry" />
        </mxCell>
        <mxCell id="igHUlAx1EoBNNh3pSHyk-12" style="edgeStyle=orthogonalEdgeStyle;rounded=0;orthogonalLoop=1;jettySize=auto;html=1;entryX=0;entryY=0.5;entryDx=0;entryDy=0;" edge="1" parent="wG7Q8QUlYoH2plEu2OoV-70" source="igHUlAx1EoBNNh3pSHyk-9" target="wG7Q8QUlYoH2plEu2OoV-78">
          <mxGeometry relative="1" as="geometry">
            <mxPoint x="80.00000000000023" y="414.99999999999955" as="targetPoint" />
            <Array as="points">
              <mxPoint x="100" y="180" />
              <mxPoint x="100" y="630" />
            </Array>
          </mxGeometry>
        </mxCell>
        <mxCell id="igHUlAx1EoBNNh3pSHyk-15" value="" style="edgeStyle=orthogonalEdgeStyle;rounded=0;orthogonalLoop=1;jettySize=auto;html=1;" edge="1" parent="wG7Q8QUlYoH2plEu2OoV-70" source="igHUlAx1EoBNNh3pSHyk-9" target="wG7Q8QUlYoH2plEu2OoV-80">
          <mxGeometry relative="1" as="geometry" />
        </mxCell>
        <mxCell id="igHUlAx1EoBNNh3pSHyk-9" value="dependent&lt;br&gt;modules already finished?" style="strokeWidth=2;html=1;shape=mxgraph.flowchart.decision;whiteSpace=wrap;" vertex="1" parent="wG7Q8QUlYoH2plEu2OoV-70">
          <mxGeometry x="182.5" y="130" width="105" height="100" as="geometry" />
        </mxCell>
        <mxCell id="igHUlAx1EoBNNh3pSHyk-18" value="no" style="text;html=1;align=center;verticalAlign=middle;whiteSpace=wrap;rounded=0;" vertex="1" parent="wG7Q8QUlYoH2plEu2OoV-70">
          <mxGeometry x="125" y="140" width="60" height="30" as="geometry" />
        </mxCell>
        <mxCell id="igHUlAx1EoBNNh3pSHyk-19" value="yes" style="text;html=1;align=center;verticalAlign=middle;whiteSpace=wrap;rounded=0;" vertex="1" parent="wG7Q8QUlYoH2plEu2OoV-70">
          <mxGeometry x="250" y="230" width="60" height="30" as="geometry" />
        </mxCell>
        <mxCell id="igHUlAx1EoBNNh3pSHyk-21" value="" style="edgeStyle=orthogonalEdgeStyle;rounded=0;orthogonalLoop=1;jettySize=auto;html=1;startArrow=none;startFill=0;" edge="1" parent="wG7Q8QUlYoH2plEu2OoV-70" source="wG7Q8QUlYoH2plEu2OoV-75" target="igHUlAx1EoBNNh3pSHyk-126">
          <mxGeometry relative="1" as="geometry">
            <mxPoint x="-1505" y="1445" as="sourcePoint" />
            <mxPoint x="420" y="340" as="targetPoint" />
          </mxGeometry>
        </mxCell>
        <mxCell id="igHUlAx1EoBNNh3pSHyk-126" value="API Store" style="ellipse;shape=cloud;whiteSpace=wrap;html=1;" vertex="1" parent="wG7Q8QUlYoH2plEu2OoV-70">
          <mxGeometry x="373" y="495" width="120" height="80" as="geometry" />
        </mxCell>
        <mxCell id="igHUlAx1EoBNNh3pSHyk-179" value="store output&amp;nbsp; and generate keys specific to study; queue up antecedent modules" style="text;html=1;align=center;verticalAlign=middle;whiteSpace=wrap;rounded=0;" vertex="1" parent="wG7Q8QUlYoH2plEu2OoV-70">
          <mxGeometry x="300" y="440" width="110" height="75" as="geometry" />
        </mxCell>
        <mxCell id="wG7Q8QUlYoH2plEu2OoV-90" value="* An &quot;alternative&quot; is a model specification and doesn&#39;t require new data, only modification of data from the previous three modules&amp;nbsp;" style="text;html=1;align=left;verticalAlign=middle;whiteSpace=wrap;rounded=0;" parent="1" vertex="1">
          <mxGeometry x="-1160" y="760" width="210" height="55" as="geometry" />
        </mxCell>
        <mxCell id="igHUlAx1EoBNNh3pSHyk-6" value="" style="swimlane;startSize=0;" vertex="1" parent="1">
          <mxGeometry x="-1650" y="-720" width="850" height="810" as="geometry" />
        </mxCell>
        <mxCell id="igHUlAx1EoBNNh3pSHyk-154" value="" style="edgeStyle=orthogonalEdgeStyle;rounded=0;orthogonalLoop=1;jettySize=auto;html=1;entryX=0.5;entryY=0;entryDx=0;entryDy=0;" edge="1" parent="igHUlAx1EoBNNh3pSHyk-6" source="PQ4RPiRYlV6zUMraTzQ3-18" target="PQ4RPiRYlV6zUMraTzQ3-30">
          <mxGeometry relative="1" as="geometry" />
        </mxCell>
        <mxCell id="PQ4RPiRYlV6zUMraTzQ3-18" value="start" style="ellipse;whiteSpace=wrap;html=1;" parent="igHUlAx1EoBNNh3pSHyk-6" vertex="1">
          <mxGeometry x="329" y="18.75" width="120" height="80" as="geometry" />
        </mxCell>
        <mxCell id="1YbS6uMou_o2y9SLhwbq-5" style="edgeStyle=orthogonalEdgeStyle;rounded=0;orthogonalLoop=1;jettySize=auto;html=1;" parent="igHUlAx1EoBNNh3pSHyk-6" source="PQ4RPiRYlV6zUMraTzQ3-30" target="PQ4RPiRYlV6zUMraTzQ3-85" edge="1">
          <mxGeometry relative="1" as="geometry" />
        </mxCell>
        <mxCell id="PQ4RPiRYlV6zUMraTzQ3-30" value="select study" style="rhombus;whiteSpace=wrap;html=1;" parent="igHUlAx1EoBNNh3pSHyk-6" vertex="1">
          <mxGeometry x="350" y="133.75" width="80" height="80" as="geometry" />
        </mxCell>
        <mxCell id="PQ4RPiRYlV6zUMraTzQ3-34" value="new study" style="text;html=1;align=center;verticalAlign=middle;whiteSpace=wrap;rounded=0;" parent="igHUlAx1EoBNNh3pSHyk-6" vertex="1">
          <mxGeometry x="300" y="130" width="60" height="30" as="geometry" />
        </mxCell>
        <mxCell id="PQ4RPiRYlV6zUMraTzQ3-57" value="existing studies" style="text;html=1;align=center;verticalAlign=middle;whiteSpace=wrap;rounded=0;" parent="igHUlAx1EoBNNh3pSHyk-6" vertex="1">
          <mxGeometry x="404.5" y="218.75" width="60" height="30" as="geometry" />
        </mxCell>
        <mxCell id="PQ4RPiRYlV6zUMraTzQ3-69" style="edgeStyle=orthogonalEdgeStyle;rounded=0;orthogonalLoop=1;jettySize=auto;html=1;entryX=0.5;entryY=0;entryDx=0;entryDy=0;exitX=0.489;exitY=0.857;exitDx=0;exitDy=0;exitPerimeter=0;" parent="igHUlAx1EoBNNh3pSHyk-6" source="igHUlAx1EoBNNh3pSHyk-118" target="PQ4RPiRYlV6zUMraTzQ3-68" edge="1">
          <mxGeometry relative="1" as="geometry">
            <mxPoint x="390" y="570" as="sourcePoint" />
          </mxGeometry>
        </mxCell>
        <mxCell id="PQ4RPiRYlV6zUMraTzQ3-185" style="edgeStyle=orthogonalEdgeStyle;rounded=0;orthogonalLoop=1;jettySize=auto;html=1;" parent="igHUlAx1EoBNNh3pSHyk-6" source="PQ4RPiRYlV6zUMraTzQ3-68" target="igHUlAx1EoBNNh3pSHyk-73" edge="1">
          <mxGeometry relative="1" as="geometry">
            <mxPoint x="390" y="571.25" as="targetPoint" />
          </mxGeometry>
        </mxCell>
        <mxCell id="PQ4RPiRYlV6zUMraTzQ3-68" value="edit input?" style="rhombus;whiteSpace=wrap;html=1;" parent="igHUlAx1EoBNNh3pSHyk-6" vertex="1">
          <mxGeometry x="349" y="620" width="80" height="80" as="geometry" />
        </mxCell>
        <mxCell id="PQ4RPiRYlV6zUMraTzQ3-71" value="yes" style="text;html=1;align=center;verticalAlign=middle;whiteSpace=wrap;rounded=0;" parent="igHUlAx1EoBNNh3pSHyk-6" vertex="1">
          <mxGeometry x="315.5" y="631.25" width="60" height="30" as="geometry" />
        </mxCell>
        <mxCell id="PQ4RPiRYlV6zUMraTzQ3-77" style="edgeStyle=orthogonalEdgeStyle;rounded=0;orthogonalLoop=1;jettySize=auto;html=1;entryX=0;entryY=0.5;entryDx=0;entryDy=0;" parent="igHUlAx1EoBNNh3pSHyk-6" source="PQ4RPiRYlV6zUMraTzQ3-68" target="igHUlAx1EoBNNh3pSHyk-5" edge="1">
          <mxGeometry relative="1" as="geometry">
            <mxPoint x="486.03999999999996" y="670" as="targetPoint" />
          </mxGeometry>
        </mxCell>
        <mxCell id="PQ4RPiRYlV6zUMraTzQ3-78" value="model outputs" style="shape=datastore;whiteSpace=wrap;html=1;" parent="igHUlAx1EoBNNh3pSHyk-6" vertex="1">
          <mxGeometry x="738" y="510" width="60" height="60" as="geometry" />
        </mxCell>
        <mxCell id="PQ4RPiRYlV6zUMraTzQ3-80" value="no" style="text;html=1;align=center;verticalAlign=middle;whiteSpace=wrap;rounded=0;" parent="igHUlAx1EoBNNh3pSHyk-6" vertex="1">
          <mxGeometry x="430" y="630" width="60" height="30" as="geometry" />
        </mxCell>
        <mxCell id="PQ4RPiRYlV6zUMraTzQ3-97" style="edgeStyle=orthogonalEdgeStyle;rounded=0;orthogonalLoop=1;jettySize=auto;html=1;exitX=1;exitY=0.5;exitDx=0;exitDy=0;" parent="igHUlAx1EoBNNh3pSHyk-6" source="igHUlAx1EoBNNh3pSHyk-5" target="PQ4RPiRYlV6zUMraTzQ3-84" edge="1">
          <mxGeometry relative="1" as="geometry" />
        </mxCell>
        <mxCell id="PQ4RPiRYlV6zUMraTzQ3-99" style="edgeStyle=orthogonalEdgeStyle;rounded=0;orthogonalLoop=1;jettySize=auto;html=1;entryX=0.5;entryY=1;entryDx=0;entryDy=0;" parent="igHUlAx1EoBNNh3pSHyk-6" source="PQ4RPiRYlV6zUMraTzQ3-84" target="PQ4RPiRYlV6zUMraTzQ3-78" edge="1">
          <mxGeometry relative="1" as="geometry" />
        </mxCell>
        <mxCell id="PQ4RPiRYlV6zUMraTzQ3-84" value="cloud-compute&amp;nbsp;" style="ellipse;shape=cloud;whiteSpace=wrap;html=1;" parent="igHUlAx1EoBNNh3pSHyk-6" vertex="1">
          <mxGeometry x="708" y="620" width="120" height="80" as="geometry" />
        </mxCell>
        <mxCell id="PQ4RPiRYlV6zUMraTzQ3-88" style="edgeStyle=orthogonalEdgeStyle;rounded=0;orthogonalLoop=1;jettySize=auto;html=1;entryX=0.5;entryY=0;entryDx=0;entryDy=0;" parent="igHUlAx1EoBNNh3pSHyk-6" source="PQ4RPiRYlV6zUMraTzQ3-85" target="igHUlAx1EoBNNh3pSHyk-118" edge="1">
          <mxGeometry relative="1" as="geometry">
            <mxPoint x="390" y="510" as="targetPoint" />
          </mxGeometry>
        </mxCell>
        <mxCell id="PQ4RPiRYlV6zUMraTzQ3-95" style="edgeStyle=orthogonalEdgeStyle;rounded=0;orthogonalLoop=1;jettySize=auto;html=1;entryX=0;entryY=0.5;entryDx=0;entryDy=0;" parent="igHUlAx1EoBNNh3pSHyk-6" source="PQ4RPiRYlV6zUMraTzQ3-85" target="igHUlAx1EoBNNh3pSHyk-89" edge="1">
          <mxGeometry relative="1" as="geometry">
            <mxPoint x="540" y="398.75" as="targetPoint" />
          </mxGeometry>
        </mxCell>
        <mxCell id="igHUlAx1EoBNNh3pSHyk-71" style="edgeStyle=orthogonalEdgeStyle;rounded=0;orthogonalLoop=1;jettySize=auto;html=1;entryX=0.5;entryY=0;entryDx=0;entryDy=0;" edge="1" parent="igHUlAx1EoBNNh3pSHyk-6" source="PQ4RPiRYlV6zUMraTzQ3-85" target="igHUlAx1EoBNNh3pSHyk-73">
          <mxGeometry relative="1" as="geometry">
            <mxPoint x="220.00000000000023" y="511.25" as="targetPoint" />
          </mxGeometry>
        </mxCell>
        <mxCell id="igHUlAx1EoBNNh3pSHyk-109" style="edgeStyle=orthogonalEdgeStyle;rounded=0;orthogonalLoop=1;jettySize=auto;html=1;" edge="1" parent="igHUlAx1EoBNNh3pSHyk-6" source="PQ4RPiRYlV6zUMraTzQ3-85" target="igHUlAx1EoBNNh3pSHyk-108">
          <mxGeometry relative="1" as="geometry" />
        </mxCell>
        <mxCell id="PQ4RPiRYlV6zUMraTzQ3-85" value="select operation" style="rhombus;whiteSpace=wrap;html=1;" parent="igHUlAx1EoBNNh3pSHyk-6" vertex="1">
          <mxGeometry x="350" y="358.75" width="80" height="80" as="geometry" />
        </mxCell>
        <mxCell id="PQ4RPiRYlV6zUMraTzQ3-89" value="generate data" style="text;html=1;align=center;verticalAlign=middle;whiteSpace=wrap;rounded=0;" parent="igHUlAx1EoBNNh3pSHyk-6" vertex="1">
          <mxGeometry x="240" y="410" width="60" height="30" as="geometry" />
        </mxCell>
        <mxCell id="igHUlAx1EoBNNh3pSHyk-86" value="" style="edgeStyle=orthogonalEdgeStyle;rounded=0;orthogonalLoop=1;jettySize=auto;html=1;exitX=1;exitY=0.5;exitDx=0;exitDy=0;startArrow=classic;startFill=1;" edge="1" parent="igHUlAx1EoBNNh3pSHyk-6" source="igHUlAx1EoBNNh3pSHyk-118" target="98Wi79xMPndo4PKG9-Y--34">
          <mxGeometry relative="1" as="geometry">
            <mxPoint x="450" y="540" as="sourcePoint" />
          </mxGeometry>
        </mxCell>
        <mxCell id="PQ4RPiRYlV6zUMraTzQ3-93" value="modeling summary" style="shape=document;whiteSpace=wrap;html=1;boundedLbl=1;" parent="igHUlAx1EoBNNh3pSHyk-6" vertex="1">
          <mxGeometry x="716" y="368.75" width="104" height="60" as="geometry" />
        </mxCell>
        <mxCell id="PQ4RPiRYlV6zUMraTzQ3-96" value="review data" style="text;html=1;align=center;verticalAlign=middle;whiteSpace=wrap;rounded=0;" parent="igHUlAx1EoBNNh3pSHyk-6" vertex="1">
          <mxGeometry x="440" y="360" width="60" height="30" as="geometry" />
        </mxCell>
        <mxCell id="98Wi79xMPndo4PKG9-Y--34" value="FEAT API" style="ellipse;shape=cloud;whiteSpace=wrap;html=1;" parent="igHUlAx1EoBNNh3pSHyk-6" vertex="1">
          <mxGeometry x="510" y="500" width="120" height="80" as="geometry" />
        </mxCell>
        <mxCell id="igHUlAx1EoBNNh3pSHyk-113" style="edgeStyle=orthogonalEdgeStyle;rounded=0;orthogonalLoop=1;jettySize=auto;html=1;entryX=1;entryY=0.5;entryDx=0;entryDy=0;" edge="1" parent="igHUlAx1EoBNNh3pSHyk-6" source="igHUlAx1EoBNNh3pSHyk-5" target="igHUlAx1EoBNNh3pSHyk-111">
          <mxGeometry relative="1" as="geometry">
            <Array as="points">
              <mxPoint x="578" y="750" />
            </Array>
          </mxGeometry>
        </mxCell>
        <mxCell id="igHUlAx1EoBNNh3pSHyk-5" value="Modeling Subsystem" style="shape=process;whiteSpace=wrap;html=1;backgroundOutline=1;fillColor=#fff2cc;strokeColor=#d6b656;" vertex="1" parent="igHUlAx1EoBNNh3pSHyk-6">
          <mxGeometry x="518" y="630" width="120" height="60" as="geometry" />
        </mxCell>
        <mxCell id="igHUlAx1EoBNNh3pSHyk-7" value="&lt;h1 style=&quot;margin-top: 0px;&quot;&gt;Main Process&lt;/h1&gt;&lt;p&gt;The overarching process governing the Feasibility Tool operations&amp;nbsp;&lt;/p&gt;" style="text;html=1;whiteSpace=wrap;overflow=hidden;rounded=0;" vertex="1" parent="igHUlAx1EoBNNh3pSHyk-6">
          <mxGeometry x="570" y="40" width="180" height="180" as="geometry" />
        </mxCell>
        <mxCell id="igHUlAx1EoBNNh3pSHyk-85" value="" style="edgeStyle=orthogonalEdgeStyle;rounded=0;orthogonalLoop=1;jettySize=auto;html=1;entryX=0;entryY=0.5;entryDx=0;entryDy=0;" edge="1" parent="igHUlAx1EoBNNh3pSHyk-6" source="igHUlAx1EoBNNh3pSHyk-73" target="igHUlAx1EoBNNh3pSHyk-118">
          <mxGeometry relative="1" as="geometry">
            <mxPoint x="330" y="540.0588235294117" as="targetPoint" />
          </mxGeometry>
        </mxCell>
        <mxCell id="igHUlAx1EoBNNh3pSHyk-73" value="Data Generation Subsystem" style="shape=process;whiteSpace=wrap;html=1;backgroundOutline=1;fillColor=#fff2cc;strokeColor=#d6b656;" vertex="1" parent="igHUlAx1EoBNNh3pSHyk-6">
          <mxGeometry x="170" y="510" width="120" height="61.25" as="geometry" />
        </mxCell>
        <mxCell id="igHUlAx1EoBNNh3pSHyk-74" value="" style="edgeStyle=orthogonalEdgeStyle;rounded=0;orthogonalLoop=1;jettySize=auto;html=1;entryX=0.5;entryY=0;entryDx=0;entryDy=0;" edge="1" parent="igHUlAx1EoBNNh3pSHyk-6" source="PQ4RPiRYlV6zUMraTzQ3-30" target="1YbS6uMou_o2y9SLhwbq-2">
          <mxGeometry relative="1" as="geometry">
            <mxPoint x="-1130" y="-526" as="sourcePoint" />
            <mxPoint x="-1230" y="-476.25" as="targetPoint" />
          </mxGeometry>
        </mxCell>
        <mxCell id="igHUlAx1EoBNNh3pSHyk-76" value="" style="edgeStyle=orthogonalEdgeStyle;rounded=0;orthogonalLoop=1;jettySize=auto;html=1;" edge="1" parent="igHUlAx1EoBNNh3pSHyk-6" source="1YbS6uMou_o2y9SLhwbq-2" target="igHUlAx1EoBNNh3pSHyk-75">
          <mxGeometry relative="1" as="geometry" />
        </mxCell>
        <mxCell id="1YbS6uMou_o2y9SLhwbq-2" value="create new study" style="rounded=0;whiteSpace=wrap;html=1;" parent="igHUlAx1EoBNNh3pSHyk-6" vertex="1">
          <mxGeometry x="210" y="200" width="120" height="60" as="geometry" />
        </mxCell>
        <mxCell id="igHUlAx1EoBNNh3pSHyk-77" style="edgeStyle=orthogonalEdgeStyle;rounded=0;orthogonalLoop=1;jettySize=auto;html=1;" edge="1" parent="igHUlAx1EoBNNh3pSHyk-6" source="igHUlAx1EoBNNh3pSHyk-75" target="PQ4RPiRYlV6zUMraTzQ3-85">
          <mxGeometry relative="1" as="geometry" />
        </mxCell>
        <mxCell id="igHUlAx1EoBNNh3pSHyk-75" value="configure modules" style="rounded=0;whiteSpace=wrap;html=1;" vertex="1" parent="igHUlAx1EoBNNh3pSHyk-6">
          <mxGeometry x="210" y="281.25" width="120" height="60" as="geometry" />
        </mxCell>
        <mxCell id="igHUlAx1EoBNNh3pSHyk-81" value="Determine which Data and Modeling Modules to enable and in which arrangement&amp;nbsp;" style="text;html=1;align=center;verticalAlign=middle;whiteSpace=wrap;rounded=0;" vertex="1" parent="igHUlAx1EoBNNh3pSHyk-6">
          <mxGeometry x="50" y="201.87" width="130" height="63.75" as="geometry" />
        </mxCell>
        <mxCell id="igHUlAx1EoBNNh3pSHyk-83" value="" style="edgeStyle=orthogonalEdgeStyle;rounded=0;orthogonalLoop=1;jettySize=auto;html=1;" edge="1" parent="igHUlAx1EoBNNh3pSHyk-6" source="igHUlAx1EoBNNh3pSHyk-82" target="igHUlAx1EoBNNh3pSHyk-75">
          <mxGeometry relative="1" as="geometry" />
        </mxCell>
        <mxCell id="igHUlAx1EoBNNh3pSHyk-82" value="Modules requirement summary" style="shape=document;whiteSpace=wrap;html=1;boundedLbl=1;" vertex="1" parent="igHUlAx1EoBNNh3pSHyk-6">
          <mxGeometry x="60" y="281.25" width="100" height="60" as="geometry" />
        </mxCell>
        <mxCell id="igHUlAx1EoBNNh3pSHyk-84" value="run simulation" style="text;html=1;align=center;verticalAlign=middle;whiteSpace=wrap;rounded=0;" vertex="1" parent="igHUlAx1EoBNNh3pSHyk-6">
          <mxGeometry x="400" y="438.75" width="60" height="30" as="geometry" />
        </mxCell>
        <mxCell id="igHUlAx1EoBNNh3pSHyk-90" style="edgeStyle=orthogonalEdgeStyle;rounded=0;orthogonalLoop=1;jettySize=auto;html=1;" edge="1" parent="igHUlAx1EoBNNh3pSHyk-6" source="igHUlAx1EoBNNh3pSHyk-89" target="PQ4RPiRYlV6zUMraTzQ3-93">
          <mxGeometry relative="1" as="geometry" />
        </mxCell>
        <mxCell id="igHUlAx1EoBNNh3pSHyk-116" value="" style="edgeStyle=orthogonalEdgeStyle;rounded=0;orthogonalLoop=1;jettySize=auto;html=1;" edge="1" parent="igHUlAx1EoBNNh3pSHyk-6" source="igHUlAx1EoBNNh3pSHyk-89" target="igHUlAx1EoBNNh3pSHyk-115">
          <mxGeometry relative="1" as="geometry" />
        </mxCell>
        <mxCell id="igHUlAx1EoBNNh3pSHyk-89" value="Data Review Subsystem" style="shape=process;whiteSpace=wrap;html=1;backgroundOutline=1;fillColor=#fff2cc;strokeColor=#d6b656;" vertex="1" parent="igHUlAx1EoBNNh3pSHyk-6">
          <mxGeometry x="520" y="368.75" width="120" height="61.25" as="geometry" />
        </mxCell>
        <mxCell id="igHUlAx1EoBNNh3pSHyk-112" style="edgeStyle=orthogonalEdgeStyle;rounded=0;orthogonalLoop=1;jettySize=auto;html=1;" edge="1" parent="igHUlAx1EoBNNh3pSHyk-6" source="igHUlAx1EoBNNh3pSHyk-108" target="igHUlAx1EoBNNh3pSHyk-111">
          <mxGeometry relative="1" as="geometry" />
        </mxCell>
        <mxCell id="igHUlAx1EoBNNh3pSHyk-108" value="modify general / module config" style="rounded=0;whiteSpace=wrap;html=1;" vertex="1" parent="igHUlAx1EoBNNh3pSHyk-6">
          <mxGeometry x="20" y="510" width="120" height="60" as="geometry" />
        </mxCell>
        <mxCell id="igHUlAx1EoBNNh3pSHyk-110" value="modify config" style="text;html=1;align=center;verticalAlign=middle;whiteSpace=wrap;rounded=0;" vertex="1" parent="igHUlAx1EoBNNh3pSHyk-6">
          <mxGeometry x="90" y="408.75" width="60" height="30" as="geometry" />
        </mxCell>
        <mxCell id="igHUlAx1EoBNNh3pSHyk-111" value="end" style="ellipse;whiteSpace=wrap;html=1;" vertex="1" parent="igHUlAx1EoBNNh3pSHyk-6">
          <mxGeometry x="20" y="710" width="120" height="80" as="geometry" />
        </mxCell>
        <mxCell id="igHUlAx1EoBNNh3pSHyk-115" value="end" style="ellipse;whiteSpace=wrap;html=1;" vertex="1" parent="igHUlAx1EoBNNh3pSHyk-6">
          <mxGeometry x="520" y="248.75" width="120" height="80" as="geometry" />
        </mxCell>
        <mxCell id="igHUlAx1EoBNNh3pSHyk-118" value="input data summary" style="shape=document;whiteSpace=wrap;html=1;boundedLbl=1;" vertex="1" parent="igHUlAx1EoBNNh3pSHyk-6">
          <mxGeometry x="338" y="510" width="104" height="60" as="geometry" />
        </mxCell>
        <mxCell id="igHUlAx1EoBNNh3pSHyk-23" value="" style="swimlane;startSize=0;" vertex="1" parent="1">
          <mxGeometry x="-1130" y="1850" width="610" height="620" as="geometry" />
        </mxCell>
        <mxCell id="igHUlAx1EoBNNh3pSHyk-24" value="&lt;h1 style=&quot;margin-top: 0px;&quot;&gt;DATA MODULE: BASIC HAZARD UI WORKFLOW&lt;/h1&gt;&lt;p&gt;Providing a basic workflow to generate hazard data on the UI&lt;/p&gt;" style="text;html=1;whiteSpace=wrap;overflow=hidden;rounded=0;" vertex="1" parent="igHUlAx1EoBNNh3pSHyk-23">
          <mxGeometry x="330" y="30" width="260" height="150" as="geometry" />
        </mxCell>
        <mxCell id="pRfy_A6ynVGi48_vsYZs-7" value="" style="edgeStyle=orthogonalEdgeStyle;rounded=0;orthogonalLoop=1;jettySize=auto;html=1;" parent="igHUlAx1EoBNNh3pSHyk-23" source="PQ4RPiRYlV6zUMraTzQ3-45" target="pRfy_A6ynVGi48_vsYZs-4" edge="1">
          <mxGeometry relative="1" as="geometry" />
        </mxCell>
        <mxCell id="PQ4RPiRYlV6zUMraTzQ3-45" value="NOAA station" style="shape=manualInput;whiteSpace=wrap;html=1;" parent="igHUlAx1EoBNNh3pSHyk-23" vertex="1">
          <mxGeometry x="20" y="195" width="80" height="80" as="geometry" />
        </mxCell>
        <mxCell id="igHUlAx1EoBNNh3pSHyk-189" value="" style="edgeStyle=orthogonalEdgeStyle;rounded=0;orthogonalLoop=1;jettySize=auto;html=1;" edge="1" parent="igHUlAx1EoBNNh3pSHyk-23" source="PQ4RPiRYlV6zUMraTzQ3-46" target="igHUlAx1EoBNNh3pSHyk-188">
          <mxGeometry relative="1" as="geometry" />
        </mxCell>
        <mxCell id="PQ4RPiRYlV6zUMraTzQ3-46" value="Manual CHS Data" style="shape=manualInput;whiteSpace=wrap;html=1;" parent="igHUlAx1EoBNNh3pSHyk-23" vertex="1">
          <mxGeometry x="345" y="415" width="80" height="80" as="geometry" />
        </mxCell>
        <mxCell id="pRfy_A6ynVGi48_vsYZs-5" value="" style="edgeStyle=orthogonalEdgeStyle;rounded=0;orthogonalLoop=1;jettySize=auto;html=1;" parent="igHUlAx1EoBNNh3pSHyk-23" source="PQ4RPiRYlV6zUMraTzQ3-127" target="pRfy_A6ynVGi48_vsYZs-4" edge="1">
          <mxGeometry relative="1" as="geometry" />
        </mxCell>
        <mxCell id="PQ4RPiRYlV6zUMraTzQ3-127" value="start" style="ellipse;whiteSpace=wrap;html=1;" parent="igHUlAx1EoBNNh3pSHyk-23" vertex="1">
          <mxGeometry x="167.5" y="75" width="120" height="80" as="geometry" />
        </mxCell>
        <mxCell id="PQ4RPiRYlV6zUMraTzQ3-128" value="end" style="ellipse;whiteSpace=wrap;html=1;" parent="igHUlAx1EoBNNh3pSHyk-23" vertex="1">
          <mxGeometry x="167.5" y="520" width="120" height="80" as="geometry" />
        </mxCell>
        <mxCell id="pRfy_A6ynVGi48_vsYZs-6" value="" style="edgeStyle=orthogonalEdgeStyle;rounded=0;orthogonalLoop=1;jettySize=auto;html=1;" parent="igHUlAx1EoBNNh3pSHyk-23" source="pRfy_A6ynVGi48_vsYZs-2" target="pRfy_A6ynVGi48_vsYZs-4" edge="1">
          <mxGeometry relative="1" as="geometry" />
        </mxCell>
        <mxCell id="pRfy_A6ynVGi48_vsYZs-2" value="NOAA API" style="ellipse;shape=cloud;whiteSpace=wrap;html=1;" parent="igHUlAx1EoBNNh3pSHyk-23" vertex="1">
          <mxGeometry x="325" y="195" width="120" height="80" as="geometry" />
        </mxCell>
        <mxCell id="pRfy_A6ynVGi48_vsYZs-9" value="" style="edgeStyle=orthogonalEdgeStyle;rounded=0;orthogonalLoop=1;jettySize=auto;html=1;" parent="igHUlAx1EoBNNh3pSHyk-23" source="pRfy_A6ynVGi48_vsYZs-4" target="pRfy_A6ynVGi48_vsYZs-8" edge="1">
          <mxGeometry relative="1" as="geometry" />
        </mxCell>
        <mxCell id="pRfy_A6ynVGi48_vsYZs-4" value="generate tides" style="rounded=0;whiteSpace=wrap;html=1;" parent="igHUlAx1EoBNNh3pSHyk-23" vertex="1">
          <mxGeometry x="167.5" y="205" width="120" height="60" as="geometry" />
        </mxCell>
        <mxCell id="igHUlAx1EoBNNh3pSHyk-192" value="" style="edgeStyle=orthogonalEdgeStyle;rounded=0;orthogonalLoop=1;jettySize=auto;html=1;" edge="1" parent="igHUlAx1EoBNNh3pSHyk-23" source="pRfy_A6ynVGi48_vsYZs-8" target="igHUlAx1EoBNNh3pSHyk-191">
          <mxGeometry relative="1" as="geometry" />
        </mxCell>
        <mxCell id="pRfy_A6ynVGi48_vsYZs-8" value="generate storm data" style="rounded=0;whiteSpace=wrap;html=1;" parent="igHUlAx1EoBNNh3pSHyk-23" vertex="1">
          <mxGeometry x="167.5" y="315" width="120" height="60" as="geometry" />
        </mxCell>
        <mxCell id="igHUlAx1EoBNNh3pSHyk-190" value="" style="edgeStyle=orthogonalEdgeStyle;rounded=0;orthogonalLoop=1;jettySize=auto;html=1;" edge="1" parent="igHUlAx1EoBNNh3pSHyk-23" source="pRfy_A6ynVGi48_vsYZs-11" target="igHUlAx1EoBNNh3pSHyk-188">
          <mxGeometry relative="1" as="geometry" />
        </mxCell>
        <mxCell id="pRfy_A6ynVGi48_vsYZs-11" value="CHS API" style="ellipse;shape=cloud;whiteSpace=wrap;html=1;" parent="igHUlAx1EoBNNh3pSHyk-23" vertex="1">
          <mxGeometry x="480" y="305" width="120" height="80" as="geometry" />
        </mxCell>
        <mxCell id="igHUlAx1EoBNNh3pSHyk-194" value="" style="edgeStyle=orthogonalEdgeStyle;rounded=0;orthogonalLoop=1;jettySize=auto;html=1;" edge="1" parent="igHUlAx1EoBNNh3pSHyk-23" source="igHUlAx1EoBNNh3pSHyk-188" target="pRfy_A6ynVGi48_vsYZs-8">
          <mxGeometry relative="1" as="geometry" />
        </mxCell>
        <mxCell id="igHUlAx1EoBNNh3pSHyk-188" value="CHS data cleaning" style="rounded=0;whiteSpace=wrap;html=1;" vertex="1" parent="igHUlAx1EoBNNh3pSHyk-23">
          <mxGeometry x="325" y="315" width="120" height="60" as="geometry" />
        </mxCell>
        <mxCell id="igHUlAx1EoBNNh3pSHyk-193" value="" style="edgeStyle=orthogonalEdgeStyle;rounded=0;orthogonalLoop=1;jettySize=auto;html=1;" edge="1" parent="igHUlAx1EoBNNh3pSHyk-23" source="igHUlAx1EoBNNh3pSHyk-191" target="PQ4RPiRYlV6zUMraTzQ3-128">
          <mxGeometry relative="1" as="geometry" />
        </mxCell>
        <mxCell id="igHUlAx1EoBNNh3pSHyk-191" value="convert to standard" style="rounded=0;whiteSpace=wrap;html=1;" vertex="1" parent="igHUlAx1EoBNNh3pSHyk-23">
          <mxGeometry x="167.5" y="415" width="120" height="60" as="geometry" />
        </mxCell>
        <mxCell id="igHUlAx1EoBNNh3pSHyk-25" value="" style="swimlane;startSize=0;" vertex="1" parent="1">
          <mxGeometry x="-491" y="1850" width="501" height="500" as="geometry" />
        </mxCell>
        <mxCell id="igHUlAx1EoBNNh3pSHyk-26" value="" style="edgeStyle=orthogonalEdgeStyle;rounded=0;orthogonalLoop=1;jettySize=auto;html=1;" edge="1" parent="igHUlAx1EoBNNh3pSHyk-25" source="igHUlAx1EoBNNh3pSHyk-27" target="igHUlAx1EoBNNh3pSHyk-36">
          <mxGeometry relative="1" as="geometry" />
        </mxCell>
        <mxCell id="igHUlAx1EoBNNh3pSHyk-27" value="tidal data file" style="shape=manualInput;whiteSpace=wrap;html=1;" vertex="1" parent="igHUlAx1EoBNNh3pSHyk-25">
          <mxGeometry x="21" y="160" width="80" height="80" as="geometry" />
        </mxCell>
        <mxCell id="igHUlAx1EoBNNh3pSHyk-146" value="" style="edgeStyle=orthogonalEdgeStyle;rounded=0;orthogonalLoop=1;jettySize=auto;html=1;" edge="1" parent="igHUlAx1EoBNNh3pSHyk-25" source="igHUlAx1EoBNNh3pSHyk-29" target="igHUlAx1EoBNNh3pSHyk-36">
          <mxGeometry relative="1" as="geometry" />
        </mxCell>
        <mxCell id="igHUlAx1EoBNNh3pSHyk-29" value="storm data file" style="shape=manualInput;whiteSpace=wrap;html=1;" vertex="1" parent="igHUlAx1EoBNNh3pSHyk-25">
          <mxGeometry x="356.5" y="160" width="80" height="80" as="geometry" />
        </mxCell>
        <mxCell id="igHUlAx1EoBNNh3pSHyk-30" value="" style="edgeStyle=orthogonalEdgeStyle;rounded=0;orthogonalLoop=1;jettySize=auto;html=1;" edge="1" parent="igHUlAx1EoBNNh3pSHyk-25" source="igHUlAx1EoBNNh3pSHyk-31" target="igHUlAx1EoBNNh3pSHyk-36">
          <mxGeometry relative="1" as="geometry" />
        </mxCell>
        <mxCell id="igHUlAx1EoBNNh3pSHyk-31" value="start" style="ellipse;whiteSpace=wrap;html=1;" vertex="1" parent="igHUlAx1EoBNNh3pSHyk-25">
          <mxGeometry x="168.5" y="40" width="120" height="80" as="geometry" />
        </mxCell>
        <mxCell id="igHUlAx1EoBNNh3pSHyk-32" value="end" style="ellipse;whiteSpace=wrap;html=1;" vertex="1" parent="igHUlAx1EoBNNh3pSHyk-25">
          <mxGeometry x="168.5" y="390" width="120" height="80" as="geometry" />
        </mxCell>
        <mxCell id="igHUlAx1EoBNNh3pSHyk-147" value="" style="edgeStyle=orthogonalEdgeStyle;rounded=0;orthogonalLoop=1;jettySize=auto;html=1;" edge="1" parent="igHUlAx1EoBNNh3pSHyk-25" source="igHUlAx1EoBNNh3pSHyk-36" target="igHUlAx1EoBNNh3pSHyk-145">
          <mxGeometry relative="1" as="geometry" />
        </mxCell>
        <mxCell id="igHUlAx1EoBNNh3pSHyk-36" value="ingest user data files" style="rounded=0;whiteSpace=wrap;html=1;" vertex="1" parent="igHUlAx1EoBNNh3pSHyk-25">
          <mxGeometry x="168.5" y="170" width="120" height="60" as="geometry" />
        </mxCell>
        <mxCell id="igHUlAx1EoBNNh3pSHyk-41" value="&lt;h1 style=&quot;margin-top: 0px;&quot;&gt;DATA MODULE: HAZARD LOCAL INGESTION&lt;/h1&gt;&lt;p&gt;Ingest local files&lt;/p&gt;" style="text;html=1;whiteSpace=wrap;overflow=hidden;rounded=0;" vertex="1" parent="igHUlAx1EoBNNh3pSHyk-25">
          <mxGeometry x="295.75" y="10" width="201.5" height="120" as="geometry" />
        </mxCell>
        <mxCell id="igHUlAx1EoBNNh3pSHyk-148" value="" style="edgeStyle=orthogonalEdgeStyle;rounded=0;orthogonalLoop=1;jettySize=auto;html=1;" edge="1" parent="igHUlAx1EoBNNh3pSHyk-25" source="igHUlAx1EoBNNh3pSHyk-145" target="igHUlAx1EoBNNh3pSHyk-32">
          <mxGeometry relative="1" as="geometry" />
        </mxCell>
        <mxCell id="igHUlAx1EoBNNh3pSHyk-145" value="convert to standard" style="rounded=0;whiteSpace=wrap;html=1;" vertex="1" parent="igHUlAx1EoBNNh3pSHyk-25">
          <mxGeometry x="168.5" y="280" width="120" height="60" as="geometry" />
        </mxCell>
        <mxCell id="igHUlAx1EoBNNh3pSHyk-67" value="enable / arrange modules" style="rounded=0;whiteSpace=wrap;html=1;" vertex="1" parent="1">
          <mxGeometry x="535" y="410" width="120" height="60" as="geometry" />
        </mxCell>
        <mxCell id="PQ4RPiRYlV6zUMraTzQ3-176" value="" style="edgeStyle=orthogonalEdgeStyle;rounded=0;orthogonalLoop=1;jettySize=auto;html=1;startArrow=classic;startFill=1;endArrow=none;endFill=0;" parent="1" source="PQ4RPiRYlV6zUMraTzQ3-152" target="PQ4RPiRYlV6zUMraTzQ3-159" edge="1">
          <mxGeometry relative="1" as="geometry" />
        </mxCell>
        <mxCell id="PQ4RPiRYlV6zUMraTzQ3-152" value="query data from SCT" style="rounded=0;whiteSpace=wrap;html=1;" parent="1" vertex="1">
          <mxGeometry x="530" y="320" width="120" height="60" as="geometry" />
        </mxCell>
        <mxCell id="PQ4RPiRYlV6zUMraTzQ3-154" value="yes" style="text;html=1;align=center;verticalAlign=middle;whiteSpace=wrap;rounded=0;" parent="1" vertex="1">
          <mxGeometry x="470" y="320" width="60" height="30" as="geometry" />
        </mxCell>
        <mxCell id="PQ4RPiRYlV6zUMraTzQ3-174" value="" style="edgeStyle=orthogonalEdgeStyle;rounded=0;orthogonalLoop=1;jettySize=auto;html=1;" parent="1" source="PQ4RPiRYlV6zUMraTzQ3-158" target="PQ4RPiRYlV6zUMraTzQ3-152" edge="1">
          <mxGeometry relative="1" as="geometry" />
        </mxCell>
        <mxCell id="PQ4RPiRYlV6zUMraTzQ3-158" value="populate&amp;nbsp;&lt;div&gt;from SCT?&lt;/div&gt;" style="rhombus;whiteSpace=wrap;html=1;" parent="1" vertex="1">
          <mxGeometry x="400" y="310" width="80" height="80" as="geometry" />
        </mxCell>
        <mxCell id="PQ4RPiRYlV6zUMraTzQ3-159" value="SCT API" style="ellipse;shape=cloud;whiteSpace=wrap;html=1;" parent="1" vertex="1">
          <mxGeometry x="530" y="200" width="120" height="80" as="geometry" />
        </mxCell>
        <mxCell id="PQ4RPiRYlV6zUMraTzQ3-160" value="no" style="text;html=1;align=center;verticalAlign=middle;whiteSpace=wrap;rounded=0;" parent="1" vertex="1">
          <mxGeometry x="380" y="400" width="60" height="30" as="geometry" />
        </mxCell>
        <mxCell id="igHUlAx1EoBNNh3pSHyk-60" value="ingest &lt;br&gt;Modeling &lt;br&gt;Modules configuration" style="shape=parallelogram;html=1;strokeWidth=2;perimeter=parallelogramPerimeter;whiteSpace=wrap;rounded=1;arcSize=12;size=0.23;" vertex="1" parent="1">
          <mxGeometry x="779.5" y="660" width="115" height="70" as="geometry" />
        </mxCell>
        <mxCell id="igHUlAx1EoBNNh3pSHyk-59" value="configure Modeling Modules" style="rounded=0;whiteSpace=wrap;html=1;" vertex="1" parent="1">
          <mxGeometry x="779.5" y="550" width="120" height="60" as="geometry" />
        </mxCell>
        <mxCell id="igHUlAx1EoBNNh3pSHyk-143" value="!!! WHAT ARE REQUIRED GENERAL STUDY INPUTS?" style="text;html=1;align=left;verticalAlign=middle;whiteSpace=wrap;rounded=0;fillColor=#f8cecc;strokeColor=#b85450;" vertex="1" parent="1">
          <mxGeometry x="-530" y="495" width="150" height="55" as="geometry" />
        </mxCell>
        <mxCell id="igHUlAx1EoBNNh3pSHyk-125" value="A concrete instantiation is a lifecycle&amp;nbsp;" style="text;html=1;align=center;verticalAlign=middle;whiteSpace=wrap;rounded=0;" vertex="1" parent="1">
          <mxGeometry x="30" y="1390" width="130" height="60" as="geometry" />
        </mxCell>
        <mxCell id="igHUlAx1EoBNNh3pSHyk-131" value="generate modeling parameters" style="rounded=0;whiteSpace=wrap;html=1;" vertex="1" parent="1">
          <mxGeometry x="35" y="1310" width="120" height="60" as="geometry" />
        </mxCell>
      </root>
    </mxGraphModel>
  </diagram>
  <diagram id="8TppexSi33puMpZT0EW5" name="Page-2">
    <mxGraphModel dx="536" dy="795" grid="1" gridSize="10" guides="1" tooltips="1" connect="1" arrows="1" fold="1" page="1" pageScale="1" pageWidth="850" pageHeight="1100" math="0" shadow="0">
      <root>
        <mxCell id="0" />
        <mxCell id="1" parent="0" />
        <mxCell id="_lwaXlpqbjJlIxt7XOg0-1" value="" style="edgeStyle=orthogonalEdgeStyle;rounded=0;orthogonalLoop=1;jettySize=auto;html=1;" edge="1" parent="1" source="_lwaXlpqbjJlIxt7XOg0-2" target="_lwaXlpqbjJlIxt7XOg0-4">
          <mxGeometry relative="1" as="geometry" />
        </mxCell>
        <mxCell id="_lwaXlpqbjJlIxt7XOg0-2" value="module 1" style="rounded=0;whiteSpace=wrap;html=1;" vertex="1" parent="1">
          <mxGeometry x="1277.5" y="330" width="120" height="60" as="geometry" />
        </mxCell>
        <mxCell id="_lwaXlpqbjJlIxt7XOg0-3" value="" style="edgeStyle=orthogonalEdgeStyle;rounded=0;orthogonalLoop=1;jettySize=auto;html=1;" edge="1" parent="1" source="_lwaXlpqbjJlIxt7XOg0-4" target="_lwaXlpqbjJlIxt7XOg0-5">
          <mxGeometry relative="1" as="geometry" />
        </mxCell>
        <mxCell id="_lwaXlpqbjJlIxt7XOg0-4" value="module 1" style="rounded=0;whiteSpace=wrap;html=1;" vertex="1" parent="1">
          <mxGeometry x="1277.5" y="450" width="120" height="60" as="geometry" />
        </mxCell>
        <mxCell id="_lwaXlpqbjJlIxt7XOg0-5" value="module 1" style="rounded=0;whiteSpace=wrap;html=1;" vertex="1" parent="1">
          <mxGeometry x="1277.5" y="580" width="120" height="60" as="geometry" />
        </mxCell>
        <mxCell id="_lwaXlpqbjJlIxt7XOg0-6" value="" style="edgeStyle=orthogonalEdgeStyle;rounded=0;orthogonalLoop=1;jettySize=auto;html=1;startArrow=classic;startFill=1;" edge="1" parent="1" source="_lwaXlpqbjJlIxt7XOg0-7" target="_lwaXlpqbjJlIxt7XOg0-10">
          <mxGeometry relative="1" as="geometry" />
        </mxCell>
        <mxCell id="_lwaXlpqbjJlIxt7XOg0-7" value="module 1" style="rounded=0;whiteSpace=wrap;html=1;" vertex="1" parent="1">
          <mxGeometry x="1195" y="730" width="120" height="60" as="geometry" />
        </mxCell>
        <mxCell id="_lwaXlpqbjJlIxt7XOg0-8" value="" style="edgeStyle=orthogonalEdgeStyle;rounded=0;orthogonalLoop=1;jettySize=auto;html=1;startArrow=classic;startFill=1;" edge="1" parent="1" source="_lwaXlpqbjJlIxt7XOg0-10" target="_lwaXlpqbjJlIxt7XOg0-11">
          <mxGeometry relative="1" as="geometry" />
        </mxCell>
        <mxCell id="_lwaXlpqbjJlIxt7XOg0-9" value="" style="edgeStyle=orthogonalEdgeStyle;rounded=0;orthogonalLoop=1;jettySize=auto;html=1;" edge="1" parent="1" source="_lwaXlpqbjJlIxt7XOg0-10" target="_lwaXlpqbjJlIxt7XOg0-16">
          <mxGeometry relative="1" as="geometry" />
        </mxCell>
        <mxCell id="_lwaXlpqbjJlIxt7XOg0-10" value="module 1" style="rounded=0;whiteSpace=wrap;html=1;" vertex="1" parent="1">
          <mxGeometry x="1385" y="730" width="120" height="60" as="geometry" />
        </mxCell>
        <mxCell id="_lwaXlpqbjJlIxt7XOg0-11" value="module 1" style="rounded=0;whiteSpace=wrap;html=1;" vertex="1" parent="1">
          <mxGeometry x="1565" y="735" width="120" height="50" as="geometry" />
        </mxCell>
        <mxCell id="_lwaXlpqbjJlIxt7XOg0-12" value="" style="edgeStyle=orthogonalEdgeStyle;rounded=0;orthogonalLoop=1;jettySize=auto;html=1;startArrow=classic;startFill=1;" edge="1" parent="1" source="_lwaXlpqbjJlIxt7XOg0-13" target="_lwaXlpqbjJlIxt7XOg0-16">
          <mxGeometry relative="1" as="geometry" />
        </mxCell>
        <mxCell id="_lwaXlpqbjJlIxt7XOg0-13" value="module 1" style="rounded=0;whiteSpace=wrap;html=1;" vertex="1" parent="1">
          <mxGeometry x="1195" y="850" width="120" height="60" as="geometry" />
        </mxCell>
        <mxCell id="_lwaXlpqbjJlIxt7XOg0-14" value="" style="edgeStyle=orthogonalEdgeStyle;rounded=0;orthogonalLoop=1;jettySize=auto;html=1;startArrow=classic;startFill=1;" edge="1" parent="1" source="_lwaXlpqbjJlIxt7XOg0-16" target="_lwaXlpqbjJlIxt7XOg0-17">
          <mxGeometry relative="1" as="geometry" />
        </mxCell>
        <mxCell id="_lwaXlpqbjJlIxt7XOg0-15" value="" style="edgeStyle=orthogonalEdgeStyle;rounded=0;orthogonalLoop=1;jettySize=auto;html=1;" edge="1" parent="1" source="_lwaXlpqbjJlIxt7XOg0-16" target="_lwaXlpqbjJlIxt7XOg0-21">
          <mxGeometry relative="1" as="geometry" />
        </mxCell>
        <mxCell id="_lwaXlpqbjJlIxt7XOg0-16" value="module 1" style="rounded=0;whiteSpace=wrap;html=1;" vertex="1" parent="1">
          <mxGeometry x="1385" y="850" width="120" height="60" as="geometry" />
        </mxCell>
        <mxCell id="_lwaXlpqbjJlIxt7XOg0-17" value="module 1" style="rounded=0;whiteSpace=wrap;html=1;" vertex="1" parent="1">
          <mxGeometry x="1565" y="855" width="120" height="50" as="geometry" />
        </mxCell>
        <mxCell id="_lwaXlpqbjJlIxt7XOg0-18" value="" style="edgeStyle=orthogonalEdgeStyle;rounded=0;orthogonalLoop=1;jettySize=auto;html=1;startArrow=classic;startFill=1;" edge="1" parent="1" source="_lwaXlpqbjJlIxt7XOg0-19" target="_lwaXlpqbjJlIxt7XOg0-21">
          <mxGeometry relative="1" as="geometry" />
        </mxCell>
        <mxCell id="_lwaXlpqbjJlIxt7XOg0-19" value="module 1" style="rounded=0;whiteSpace=wrap;html=1;" vertex="1" parent="1">
          <mxGeometry x="1195" y="970" width="120" height="60" as="geometry" />
        </mxCell>
        <mxCell id="_lwaXlpqbjJlIxt7XOg0-20" value="" style="edgeStyle=orthogonalEdgeStyle;rounded=0;orthogonalLoop=1;jettySize=auto;html=1;startArrow=classic;startFill=1;" edge="1" parent="1" source="_lwaXlpqbjJlIxt7XOg0-21" target="_lwaXlpqbjJlIxt7XOg0-22">
          <mxGeometry relative="1" as="geometry" />
        </mxCell>
        <mxCell id="_lwaXlpqbjJlIxt7XOg0-21" value="module 1" style="rounded=0;whiteSpace=wrap;html=1;" vertex="1" parent="1">
          <mxGeometry x="1385" y="970" width="120" height="60" as="geometry" />
        </mxCell>
        <mxCell id="_lwaXlpqbjJlIxt7XOg0-22" value="module 1" style="rounded=0;whiteSpace=wrap;html=1;" vertex="1" parent="1">
          <mxGeometry x="1565" y="975" width="120" height="50" as="geometry" />
        </mxCell>
      </root>
    </mxGraphModel>
  </diagram>
  <diagram id="gFnmHpHT2rimO-16ql6k" name="Page-3">
    <mxGraphModel dx="1386" dy="795" grid="1" gridSize="10" guides="1" tooltips="1" connect="1" arrows="1" fold="1" page="1" pageScale="1" pageWidth="850" pageHeight="1100" math="0" shadow="0">
      <root>
        <mxCell id="0" />
        <mxCell id="1" parent="0" />
        <mxCell id="lNjykbMqXwS9asYuhnF0-3" value="" style="edgeStyle=orthogonalEdgeStyle;rounded=0;orthogonalLoop=1;jettySize=auto;html=1;" edge="1" parent="1" source="lNjykbMqXwS9asYuhnF0-1" target="lNjykbMqXwS9asYuhnF0-2">
          <mxGeometry relative="1" as="geometry" />
        </mxCell>
        <mxCell id="lNjykbMqXwS9asYuhnF0-5" style="edgeStyle=orthogonalEdgeStyle;rounded=0;orthogonalLoop=1;jettySize=auto;html=1;entryX=1;entryY=0.5;entryDx=0;entryDy=0;" edge="1" parent="1" source="lNjykbMqXwS9asYuhnF0-1" target="lNjykbMqXwS9asYuhnF0-4">
          <mxGeometry relative="1" as="geometry" />
        </mxCell>
        <mxCell id="lNjykbMqXwS9asYuhnF0-8" style="edgeStyle=orthogonalEdgeStyle;rounded=0;orthogonalLoop=1;jettySize=auto;html=1;" edge="1" parent="1" source="lNjykbMqXwS9asYuhnF0-1" target="lNjykbMqXwS9asYuhnF0-7">
          <mxGeometry relative="1" as="geometry" />
        </mxCell>
        <mxCell id="lNjykbMqXwS9asYuhnF0-1" value="My Lego" style="rounded=0;whiteSpace=wrap;html=1;" vertex="1" parent="1">
          <mxGeometry x="380" y="300" width="120" height="60" as="geometry" />
        </mxCell>
        <mxCell id="lNjykbMqXwS9asYuhnF0-6" style="edgeStyle=orthogonalEdgeStyle;rounded=0;orthogonalLoop=1;jettySize=auto;html=1;entryX=1;entryY=0.5;entryDx=0;entryDy=0;" edge="1" parent="1" source="lNjykbMqXwS9asYuhnF0-2" target="lNjykbMqXwS9asYuhnF0-4">
          <mxGeometry relative="1" as="geometry" />
        </mxCell>
        <mxCell id="lNjykbMqXwS9asYuhnF0-12" style="edgeStyle=orthogonalEdgeStyle;rounded=0;orthogonalLoop=1;jettySize=auto;html=1;" edge="1" parent="1" source="lNjykbMqXwS9asYuhnF0-2" target="lNjykbMqXwS9asYuhnF0-11">
          <mxGeometry relative="1" as="geometry" />
        </mxCell>
        <mxCell id="lNjykbMqXwS9asYuhnF0-2" value="My Lego 2" style="ellipse;whiteSpace=wrap;html=1;aspect=fixed;" vertex="1" parent="1">
          <mxGeometry x="400" y="420" width="80" height="80" as="geometry" />
        </mxCell>
        <mxCell id="lNjykbMqXwS9asYuhnF0-4" value="Interface" style="shape=process;whiteSpace=wrap;html=1;backgroundOutline=1;" vertex="1" parent="1">
          <mxGeometry x="100" y="300" width="120" height="60" as="geometry" />
        </mxCell>
        <mxCell id="lNjykbMqXwS9asYuhnF0-9" style="edgeStyle=orthogonalEdgeStyle;rounded=0;orthogonalLoop=1;jettySize=auto;html=1;" edge="1" parent="1" source="lNjykbMqXwS9asYuhnF0-7" target="lNjykbMqXwS9asYuhnF0-2">
          <mxGeometry relative="1" as="geometry" />
        </mxCell>
        <mxCell id="lNjykbMqXwS9asYuhnF0-10" style="edgeStyle=orthogonalEdgeStyle;rounded=0;orthogonalLoop=1;jettySize=auto;html=1;" edge="1" parent="1" source="lNjykbMqXwS9asYuhnF0-7" target="lNjykbMqXwS9asYuhnF0-4">
          <mxGeometry relative="1" as="geometry" />
        </mxCell>
        <mxCell id="lNjykbMqXwS9asYuhnF0-7" value="My Lego 3" style="shape=parallelogram;perimeter=parallelogramPerimeter;whiteSpace=wrap;html=1;fixedSize=1;" vertex="1" parent="1">
          <mxGeometry x="520" y="620" width="120" height="60" as="geometry" />
        </mxCell>
        <mxCell id="lNjykbMqXwS9asYuhnF0-13" style="edgeStyle=orthogonalEdgeStyle;rounded=0;orthogonalLoop=1;jettySize=auto;html=1;entryX=0.5;entryY=0;entryDx=0;entryDy=0;" edge="1" parent="1" source="lNjykbMqXwS9asYuhnF0-11" target="lNjykbMqXwS9asYuhnF0-1">
          <mxGeometry relative="1" as="geometry" />
        </mxCell>
        <mxCell id="lNjykbMqXwS9asYuhnF0-14" style="edgeStyle=orthogonalEdgeStyle;rounded=0;orthogonalLoop=1;jettySize=auto;html=1;entryX=0.5;entryY=0;entryDx=0;entryDy=0;" edge="1" parent="1" source="lNjykbMqXwS9asYuhnF0-11" target="lNjykbMqXwS9asYuhnF0-4">
          <mxGeometry relative="1" as="geometry">
            <Array as="points">
              <mxPoint x="730" y="200" />
              <mxPoint x="160" y="200" />
            </Array>
          </mxGeometry>
        </mxCell>
        <mxCell id="lNjykbMqXwS9asYuhnF0-11" value="My Lego 4" style="ellipse;whiteSpace=wrap;html=1;" vertex="1" parent="1">
          <mxGeometry x="670" y="240" width="120" height="80" as="geometry" />
        </mxCell>
      </root>
    </mxGraphModel>
  </diagram>
</mxfile>
